<svg xmlns="http://www.w3.org/2000/svg" width="210" height="110" viewBox="0 0 210 110"><g fill="none" fill-rule="evenodd" stroke-linecap="round" stroke-linejoin="round" transform="translate(11 11)"><path fill="#FFD07D" fill-rule="nonzero" stroke="#FFD07D" stroke-width=".5" d="M61.803375,23.9207518 C61.9307083,23.6227518 61.9857083,23.4767518 61.968375,23.4827518 C61.9637083,23.6960851 61.9787083,23.4774184 62.013375,22.8267518 C61.9067083,22.6320851 61.0100417,22.9484184 59.323375,23.7757518 C57.6367083,24.6030851 56.2660417,25.3370851 55.211375,25.9777518 C54.1567083,26.6177518 53.1067083,27.4980851 52.061375,28.6187518 C51.0160417,29.7400851 50.2357083,30.5304184 49.720375,30.9897518 C49.2050417,31.4497518 48.866375,31.8330851 48.704375,32.1397518 C48.5430417,32.4464184 48.4297083,32.7244184 48.364375,32.9737518 C48.2990417,33.2224184 48.2040417,33.4880851 48.079375,33.7707518 C47.9547083,34.0527518 47.885375,34.2074184 47.871375,34.2347518 C47.8567083,34.2620851 47.8597083,34.2767518 47.880375,34.2787518 C47.900375,34.2807518 47.9020417,34.2590851 47.885375,34.2137518 C47.869375,34.1684184 47.650375,34.6007518 47.228375,35.5107518 C46.806375,36.4207518 46.488375,37.2397518 46.274375,37.9677518 C46.0597083,38.6950851 45.9500417,39.1417518 45.945375,39.3077518 C45.941375,39.4730851 45.8380417,39.9017518 45.635375,40.5937518 C45.4327083,41.2850851 45.2950417,41.8034184 45.222375,42.1487518 C45.1497083,42.4934184 45.087375,42.8014184 45.035375,43.0727518 C44.983375,43.3447518 44.962375,43.4617518 44.972375,43.4237518 C44.982375,43.3857518 44.9830417,43.4164184 44.974375,43.5157518 C44.9657083,43.6144184 44.9660417,43.6214184 44.975375,43.5367518 C44.9840417,43.4520851 44.9290417,43.7467518 44.810375,44.4207518 C44.6917083,45.0947518 44.606375,45.6467518 44.554375,46.0767518 C44.5017083,46.5067518 44.4787083,46.7084184 44.485375,46.6817518 C44.4920417,46.6550851 44.4920417,46.7200851 44.485375,46.8767518 C44.4787083,47.0327518 44.456375,47.2584184 44.418375,47.5537518 C44.3810417,47.8490851 44.3487083,48.0674184 44.321375,48.2087518 C44.2947083,48.3500851 44.278375,48.4694184 44.272375,48.5667518 C44.2670417,48.6634184 44.251375,48.7694184 44.225375,48.8847518 C44.199375,49.0007518 44.173375,49.2327518 44.147375,49.5807518 C44.1207083,49.9287518 44.0967083,50.5637518 44.075375,51.4857518 C44.053375,52.4084184 44.0657083,53.2454184 44.112375,53.9967518 C44.158375,54.7487518 44.2227083,55.2524184 44.305375,55.5077518 C44.3880417,55.7630851 44.470375,56.0340851 44.552375,56.3207518 C44.6337083,56.6080851 44.6690417,56.7370851 44.658375,56.7077518 C44.6477083,56.6790851 44.6390417,56.6484184 44.632375,56.6157518 C44.6250417,56.5830851 44.6550417,56.7614184 44.722375,57.1507518 C44.7890417,57.5400851 45.0940417,57.9727518 45.637375,58.4487518 C46.1800417,58.9247518 46.4950417,59.1900851 46.582375,59.2447518 C46.6690417,59.2994184 46.6890417,59.3090851 46.642375,59.2737518 C46.5957083,59.2377518 46.577375,59.2230851 46.587375,59.2297518 C46.5987083,59.2364184 46.6107083,59.2480851 46.623375,59.2647518 C46.6360417,59.2814184 46.633375,59.2794184 46.615375,59.2587518 C46.597375,59.2387518 46.587375,59.2277518 46.585375,59.2257518 C46.5827083,59.2237518 46.5930417,59.2374184 46.616375,59.2667518 C46.6397083,59.2967518 46.8507083,59.4880851 47.249375,59.8407518 C47.6480417,60.1940851 47.7717083,60.2954184 47.620375,60.1447518 C47.6670417,60.9160851 47.6820417,61.1817518 47.665375,60.9417518 C47.4207083,61.6984184 47.3407083,61.9360851 47.425375,61.6547518 C47.1000417,62.0480851 46.925375,62.2304184 46.901375,62.2017518 C46.7267083,62.3217518 46.6557083,62.3684184 46.688375,62.3417518 C46.7210417,62.3144184 46.4087083,62.4750851 45.751375,62.8237518 C45.0940417,63.1717518 44.4010417,63.5350851 43.672375,63.9137518 C42.944375,64.2917518 42.4150417,64.5804184 42.084375,64.7797518 C41.7530417,64.9790851 41.4480417,65.1887518 41.169375,65.4087518 C40.8900417,65.6287518 40.750375,65.7524184 40.750375,65.7797518 C40.750375,65.8070851 40.7527083,65.7844184 40.757375,65.7117518 C40.7620417,65.6397518 40.4697083,65.8984184 39.880375,66.4877518 C39.2910417,67.0770851 38.8740417,67.5657518 38.629375,67.9537518 C38.3847083,68.3417518 38.1977083,68.6677518 38.068375,68.9317518 C37.9390417,69.1950851 37.8620417,69.3477518 37.837375,69.3897518 C37.8127083,69.4310851 37.7967083,69.4597518 37.789375,69.4757518 C37.7820417,69.4917518 37.772375,69.5130851 37.760375,69.5397518 C37.7477083,69.5664184 37.699375,69.6667518 37.615375,69.8407518 C37.5307083,70.0147518 37.483375,70.1187518 37.473375,70.1527518 C37.4627083,70.1867518 37.434375,70.2414184 37.388375,70.3167518 C37.3417083,70.3920851 37.284375,70.4830851 37.216375,70.5897518 C37.148375,70.6964184 37.016375,71.1630851 36.820375,71.9897518 C36.624375,72.8164184 36.5050417,73.3264184 36.462375,73.5197518 C36.4190417,73.7130851 36.393375,73.8400851 36.385375,73.9007518 C36.3767083,73.9620851 36.3720417,73.9907518 36.371375,73.9867518 C36.371375,73.9834184 36.3710417,73.9787518 36.370375,73.9727518 C36.370375,73.9660851 36.370375,73.9584184 36.370375,73.9497518 C36.370375,73.9410851 36.332375,74.3110851 36.256375,75.0597518 C36.1810417,75.8084184 36.1560417,76.0874184 36.181375,75.8967518 C36.181375,76.7214184 36.181375,77.0637518 36.181375,76.9237518 C36.181375,76.7844184 36.1867083,76.8537518 36.197375,77.1317518 C36.207375,77.4090851 36.194375,77.5007518 36.158375,77.4067518 C36.1230417,77.3120851 36.1890417,77.4077518 36.356375,77.6937518 C36.5230417,77.9804184 36.6330417,78.1647518 36.686375,78.2467518 C36.7397083,78.3294184 36.752375,78.3500851 36.724375,78.3087518 C36.6970417,78.2680851 36.687375,78.2534184 36.695375,78.2647518 C36.7040417,78.2754184 36.709375,78.2827518 36.711375,78.2867518 C36.7127083,78.2907518 36.861375,78.4830851 37.157375,78.8637518 C37.4527083,79.2444184 37.6047083,79.4257518 37.613375,79.4077518 C37.955375,79.6830851 38.181375,79.8517518 38.291375,79.9137518 C38.4020417,79.9757518 38.417375,79.9840851 38.337375,79.9387518 C38.257375,79.8927518 38.328375,79.9360851 38.550375,80.0687518 C38.7730417,80.2020851 39.0280417,80.3467518 39.315375,80.5027518 C39.6027083,80.6580851 39.9887083,80.8554184 40.473375,81.0947518 C40.9580417,81.3340851 41.5767083,81.5604184 42.329375,81.7737518 C43.0827083,81.9864184 43.8000417,82.1654184 44.481375,82.3107518 C45.1640417,82.4547518 45.5887083,82.5360851 45.755375,82.5547518 C45.9220417,82.5727518 46.0727083,82.5994184 46.207375,82.6347518 C46.3420417,82.6700851 46.5250417,82.6917518 46.756375,82.6997518 C46.988375,82.7084184 47.4450417,82.8070851 48.126375,82.9957518 C48.808375,83.1844184 49.310375,83.3584184 49.632375,83.5177518 C49.9550417,83.6770851 50.2617083,83.8690851 50.552375,84.0937518 C50.8430417,84.3184184 50.9750417,84.4164184 50.948375,84.3877518 C50.9217083,84.3590851 50.9590417,84.3560851 51.060375,84.3787518 C51.1610417,84.4014184 51.2947083,84.4807518 51.461375,84.6167518 C51.6280417,84.7527518 52.4537083,85.0797518 53.938375,85.5977518 C55.4230417,86.1150851 56.935375,86.3920851 58.475375,86.4287518 C60.0147083,86.4654184 61.1957083,86.5274184 62.018375,86.6147518 C62.840375,86.7027518 64.660375,86.9624184 67.478375,87.3937518 C70.2957083,87.8244184 72.523375,88.1637518 74.161375,88.4117518 C75.7987083,88.6590851 77.0707083,88.7640851 77.977375,88.7267518 C78.8840417,88.6894184 79.697375,88.6847518 80.417375,88.7127518 C81.137375,88.7407518 82.9917083,88.8984184 85.980375,89.1857518 C88.9697083,89.4730851 91.327375,89.5940851 93.053375,89.5487518 C94.779375,89.5034184 96.116375,89.5344184 97.064375,89.6417518 C98.0130417,89.7490851 99.0660417,89.7987518 100.223375,89.7907518 C101.380042,89.7827518 102.489375,89.7700851 103.551375,89.7527518 C104.613375,89.7354184 105.862042,89.7420851 107.297375,89.7727518 C108.732708,89.8020851 110.492708,89.815774 112.577375,89.815774 C114.662042,89.815774 116.175042,89.7310851 117.116375,89.5637518 C118.058375,89.3957518 119.091042,89.2360851 120.214375,89.0847518 C121.337708,88.9340851 122.651375,88.8457518 124.155375,88.8197518 C125.659375,88.7950851 126.923375,88.7024184 127.947375,88.5417518 C128.970708,88.3804184 130.051708,88.2077518 131.190375,88.0237518 C132.328375,87.8390851 133.368042,87.7590851 134.309375,87.7837518 C135.250708,87.8084184 136.066375,87.8174184 136.756375,87.8107518 C137.446375,87.8034184 137.947375,87.8007518 138.259375,87.8027518 C138.572042,87.8047518 138.817375,87.8054184 138.995375,87.8047518 C139.173375,87.8040851 139.266042,87.8037518 139.273375,87.8037518 C139.281375,87.8030851 139.245375,87.8037518 139.165375,87.8057518 C139.085375,87.8070851 139.306375,87.8047518 139.828375,87.7987518 C140.349708,87.7920851 140.770708,87.7717518 141.091375,87.7377518 C141.412042,87.7037518 141.541708,87.6844184 141.480375,87.6797518 C141.418375,87.6744184 141.698375,87.6444184 142.320375,87.5897518 C142.941708,87.5344184 143.924375,87.5037518 145.268375,87.4977518 C146.611708,87.4910851 148.130375,87.3080851 149.824375,86.9487518 C151.518375,86.5894184 152.762708,86.3004184 153.557375,86.0817518 C154.352042,85.8630851 154.949375,85.6910851 155.349375,85.5657518 C155.748708,85.4404184 156.235375,85.2874184 156.809375,85.1067518 C157.383375,84.9260851 157.670042,84.8397518 157.669375,84.8477518 C157.668042,84.8550851 157.731375,84.8354184 157.859375,84.7887518 C157.987375,84.7414184 158.193042,84.6827518 158.476375,84.6127518 C158.759708,84.5434184 159.675708,84.3057518 161.224375,83.8997518 C162.772375,83.4930851 164.315042,83.0984184 165.852375,82.7157518 C167.389708,82.3330851 168.650375,82.0127518 169.634375,81.7547518 C170.619042,81.4960851 171.292708,81.2877518 171.655375,81.1297518 C172.018042,80.9717518 172.538375,80.7944184 173.216375,80.5977518 C173.894375,80.4004184 174.654375,80.1687518 175.496375,79.9027518 C176.338375,79.6367518 177.002375,79.4007518 177.488375,79.1947518 C177.974375,78.9887518 178.436375,78.8007518 178.874375,78.6307518 C179.311708,78.4614184 179.482375,78.3987518 179.386375,78.4427518 C179.289708,78.4874184 179.297042,78.4817518 179.408375,78.4257518 C179.519708,78.3690851 179.849375,78.2110851 180.397375,77.9517518 C180.945375,77.6924184 181.521375,77.4457518 182.125375,77.2117518 C182.729375,76.9777518 183.047042,76.8594184 183.078375,76.8567518 C183.109708,76.8534184 183.306375,76.7840851 183.668375,76.6487518 C184.030375,76.5127518 184.479375,76.3954184 185.015375,76.2967518 C185.550708,76.1974184 185.989375,76.1514184 186.331375,76.1587518 C186.673375,76.1674184 186.803042,76.1707518 186.720375,76.1687518 C186.638375,76.1674184 186.638042,76.1667518 186.719375,76.1667518 C186.800708,76.1674184 186.962708,76.1674184 187.205375,76.1667518 C187.448042,76.1660851 187.589708,76.1554184 187.630375,76.1347518 C187.671042,76.1140851 187.709708,76.1237518 187.746375,76.1637518 C187.783042,76.2037518 187.986375,76.1660851 188.356375,76.0507518 C188.727708,75.9354184 189.095375,75.7900851 189.459375,75.6147518 C189.823375,75.4407518 190.111375,75.2930851 190.323375,75.1717518 C190.536042,75.0510851 190.645375,74.9887518 190.651375,74.9847518 C190.658042,74.9807518 190.640375,74.9930851 190.598375,75.0217518 C190.556375,75.0497518 190.651042,74.9824184 190.882375,74.8197518 C191.114375,74.6577518 191.335042,74.5040851 191.544375,74.3587518 C191.753708,74.2140851 191.828708,74.1504184 191.769375,74.1677518 C191.876708,74.1204184 191.940708,74.0384184 191.961375,73.9217518 C191.982042,73.8050851 191.980375,73.8017518 191.956375,73.9117518 C191.933042,74.0224184 191.990042,73.7814184 192.127375,73.1887518 C192.264708,72.5960851 192.325042,72.3377518 192.308375,72.4137518 C192.291708,72.4897518 192.285708,72.4920851 192.290375,72.4207518 C192.295042,72.3494184 192.296375,72.2234184 192.294375,72.0427518 C192.293042,71.8627518 192.287042,71.7364184 192.276375,71.6637518 C192.265708,71.5910851 192.266708,71.4324184 192.279375,71.1877518 C192.291375,70.9424184 192.237708,70.9030851 192.118375,71.0697518 C191.998375,71.2364184 191.835042,70.2880851 191.628375,68.2247518 C191.421042,66.1607518 191.337042,64.5930851 191.376375,63.5217518 C191.415708,62.4497518 191.364708,61.6500851 191.223375,61.1227518 C191.082042,60.5960851 190.989375,60.2477518 190.945375,60.0777518 C190.901375,59.9084184 190.884708,59.8744184 190.895375,59.9757518 C190.906708,60.0764184 190.905042,59.9980851 190.890375,59.7407518 C190.876375,59.4834184 190.816708,59.2034184 190.711375,58.9007518 C190.606708,58.5980851 190.455375,58.2597518 190.257375,57.8857518 C190.059375,57.5117518 189.916375,57.2824184 189.828375,57.1977518 C189.740375,57.1130851 189.692042,57.0690851 189.683375,57.0657518 C189.674042,57.0610851 189.661042,57.0514184 189.644375,57.0367518 C189.627708,57.0220851 189.563375,56.9707518 189.451375,56.8827518 C189.338708,56.7947518 189.277708,56.7497518 189.268375,56.7477518 C189.259042,56.7464184 189.111042,56.6360851 188.824375,56.4167518 C188.537708,56.1974184 188.351375,56.0520851 188.265375,55.9807518 C188.179375,55.9087518 188.145375,55.8774184 188.163375,55.8867518 C188.182042,55.8960851 188.213042,55.9287518 188.256375,55.9847518 C188.299708,56.0407518 188.257375,56.0017518 188.129375,55.8677518 C188.001375,55.7344184 187.863375,55.5444184 187.715375,55.2977518 C187.568042,55.0510851 187.502042,54.9350851 187.517375,54.9497518 C187.533375,54.9644184 187.530042,54.9444184 187.507375,54.8897518 C187.484708,54.8350851 187.428708,54.6644184 187.339375,54.3777518 C187.250708,54.0910851 187.219042,54.0267518 187.244375,54.1847518 C187.270375,54.3420851 187.273708,54.2534184 187.254375,53.9187518 C187.236375,53.5840851 187.228708,53.2670851 187.231375,52.9677518 C187.234708,52.6684184 187.252375,52.3600851 187.284375,52.0427518 C187.317042,51.7254184 187.335375,51.5587518 187.339375,51.5427518 C187.344042,51.5267518 187.355375,51.5257518 187.373375,51.5397518 C187.390708,51.5537518 187.456042,51.2587518 187.569375,50.6547518 C187.682042,50.0520851 187.741375,49.3204184 187.747375,48.4597518 C187.753375,47.5990851 187.744042,46.8924184 187.719375,46.3397518 C187.694042,45.7877518 187.621042,45.3580851 187.500375,45.0507518 C187.379042,44.7434184 187.298708,44.5287518 187.259375,44.4067518 C187.219375,44.2840851 187.169042,44.1354184 187.108375,43.9607518 C187.048375,43.7860851 186.950042,43.5290851 186.813375,43.1897518 C186.676042,42.8497518 186.600375,42.6794184 186.586375,42.6787518 C186.571708,42.6774184 186.566708,42.6774184 186.571375,42.6787518 C186.576042,42.6794184 186.593042,42.6987518 186.622375,42.7367518 C186.651708,42.7754184 186.545375,42.6117518 186.303375,42.2457518 C186.061375,41.8804184 185.764708,41.4574184 185.413375,40.9767518 C185.061375,40.4954184 184.766375,40.0544184 184.528375,39.6537518 C184.290375,39.2524184 184.123375,38.9684184 184.027375,38.8017518 C183.931375,38.6350851 183.880708,38.5494184 183.875375,38.5447518 C183.870042,38.5394184 183.838708,38.5110851 183.781375,38.4597518 C183.724708,38.4084184 183.755042,38.3960851 183.872375,38.4227518 C183.989042,38.4500851 183.742042,38.2547518 183.131375,37.8367518 C182.520042,37.4187518 182.047042,37.1500851 181.712375,37.0307518 C181.377708,36.9114184 181.146708,36.7984184 181.019375,36.6917518 C180.891375,36.5844184 180.679708,36.3780851 180.384375,36.0727518 C180.088375,35.7674184 179.965375,35.6307518 180.015375,35.6627518 C180.065375,35.6947518 180.070708,35.6804184 180.031375,35.6197518 C179.991375,35.5597518 179.909708,35.4710851 179.786375,35.3537518 C179.662375,35.2364184 179.330708,34.6834184 178.791375,33.6947518 C178.251375,32.7067518 177.870042,31.8727518 177.647375,31.1927518 C177.424042,30.5120851 177.318375,30.0197518 177.330375,29.7157518 C177.341708,29.4117518 177.350042,29.1804184 177.355375,29.0217518 C177.360708,28.8630851 177.358042,28.7224184 177.347375,28.5997518 C177.336708,28.4770851 177.320375,28.4387518 177.298375,28.4847518 C177.276375,28.5307518 177.247375,28.4097518 177.211375,28.1217518 C177.175375,27.8337518 177.004042,26.9067518 176.697375,25.3407518 C176.390708,23.7754184 175.902708,22.4004184 175.233375,21.2157518 C174.564042,20.0310851 174.005708,19.0827518 173.558375,18.3707518 C173.110375,17.6587518 172.722042,17.1597518 172.393375,16.8737518 C172.064042,16.5877518 171.654708,16.3677518 171.165375,16.2137518 C170.676042,16.0604184 170.436375,16.0290851 170.446375,16.1197518 C170.456375,16.2104184 170.002375,16.0340851 169.084375,15.5907518 C168.165708,15.1474184 167.471708,14.7317518 167.002375,14.3437518 C166.532375,13.9557518 166.101375,13.6414184 165.709375,13.4007518 C165.316708,13.1600851 165.079708,13.0057518 164.998375,12.9377518 C164.916375,12.8697518 164.920375,12.8660851 165.010375,12.9267518 C165.100375,12.9874184 164.601375,12.7534184 163.513375,12.2247518 C162.426042,11.6960851 161.584708,11.2817518 160.989375,10.9817518 C160.393375,10.6810851 160.047708,10.4534184 159.952375,10.2987518 C159.857042,10.1434184 159.813708,10.0820851 159.822375,10.1147518 C159.831708,10.1480851 159.841708,10.0900851 159.852375,9.94075177 C159.863708,9.79141844 159.762708,9.47675177 159.549375,8.99675177 C159.336708,8.51741844 159.102375,8.18875177 158.846375,8.01075177 C158.591042,7.83275177 158.446708,7.72241844 158.413375,7.67975177 C158.380042,7.63708511 158.323708,7.59841844 158.244375,7.56375177 C158.165708,7.52841844 158.145375,7.53108511 158.183375,7.57175177 C158.221375,7.61175177 158.015375,7.42341844 157.565375,7.00675177 C157.115375,6.58941844 156.237042,6.07441844 154.930375,5.46175177 C153.623708,4.84908511 152.444708,4.55541844 151.393375,4.58075177 C150.342042,4.60541844 149.025708,4.53008511 147.444375,4.35475177 C145.862375,4.17875177 144.648375,3.96375177 143.802375,3.70975177 C142.956375,3.45508511 142.644708,3.33441844 142.867375,3.34775177 C143.089375,3.36175177 142.048375,3.24575177 139.744375,2.99975177 C137.439708,2.75441844 135.850708,2.59875177 134.977375,2.53275177 C134.104708,2.46675177 132.621042,2.40775177 130.526375,2.35575177 C128.431708,2.30375177 126.715042,2.14841844 125.376375,1.88975177 C124.037708,1.63041844 121.773708,1.60775177 118.584375,1.82175177 C115.394375,2.03641844 113.074375,2.22375177 111.624375,2.38375177 C110.173708,2.54441844 108.918042,2.69508511 107.857375,2.83575177 C106.797375,2.97708511 105.954375,3.13075177 105.328375,3.29675177 C104.702375,3.46208511 104.222375,3.59475177 103.888375,3.69475177 C103.554375,3.79541844 103.237042,3.86508511 102.936375,3.90375177 C102.635708,3.94241844 102.556708,3.98975177 102.699375,4.04575177 C102.842708,4.10108511 102.118375,4.17008511 100.526375,4.25275177 C98.9350417,4.33541844 97.1607083,4.37708511 95.203375,4.37775177 C93.2460417,4.37908511 91.8050417,4.42708511 90.880375,4.52175177 C89.9557083,4.61641844 89.3287083,4.69508511 88.999375,4.75775177 C88.669375,4.82041844 88.506375,4.85141844 88.510375,4.85075177 C88.5137083,4.85075177 88.544375,4.84408511 88.602375,4.83075177 C88.6597083,4.81741844 88.650375,4.81908511 88.574375,4.83575177 C88.498375,4.85241844 88.212375,4.92441844 87.716375,5.05175177 C87.2197083,5.17908511 86.9467083,5.26075177 86.897375,5.29675177 C86.8467083,5.33208511 86.8070417,5.35575177 86.778375,5.36775177 C86.7497083,5.38041844 86.7180417,5.39175177 86.683375,5.40175177 C86.6487083,5.41308511 86.560375,5.47308511 86.418375,5.58175177 C86.2750417,5.69108511 85.1700417,6.14875177 83.103375,6.95475177 C81.0360417,7.76008511 79.5090417,8.33308511 78.522375,8.67375177 C77.536375,9.01508511 76.7407083,9.37175177 76.135375,9.74375177 C75.5300417,10.1157518 75.0707083,10.4167518 74.757375,10.6467518 C74.4440417,10.8754184 74.2040417,11.0364184 74.037375,11.1297518 C73.8707083,11.2237518 73.671375,11.3320851 73.439375,11.4547518 C73.2080417,11.5780851 73.1170417,11.6247518 73.166375,11.5947518 C73.2150417,11.5640851 73.2107083,11.5654184 73.153375,11.5987518 C73.0960417,11.6320851 72.7907083,11.7564184 72.237375,11.9717518 C71.6840417,12.1877518 71.254375,12.3510851 70.948375,12.4617518 C70.6417083,12.5724184 70.3700417,12.6654184 70.133375,12.7407518 C69.8967083,12.8167518 69.8210417,12.8534184 69.906375,12.8507518 C69.992375,12.8480851 69.7167083,12.9744184 69.079375,13.2297518 C68.4420417,13.4837518 67.5400417,13.6510851 66.373375,13.7317518 C65.2067083,13.8117518 63.7840417,14.3747518 62.105375,15.4207518 C60.4260417,16.4660851 58.436375,18.0004184 56.136375,20.0237518"/><path fill="#F0F3ED" fill-rule="nonzero" stroke="#F0F3ED" stroke-width=".5" d="M30.185375 74.5217518C30.185375 74.5217518 30.190375 74.5267518 30.200375 74.5367518 30.210375 74.5474184 30.300375 74.5630851 30.470375 74.5837518 30.470375 74.5630851 30.470375 74.4867518 30.470375 74.3547518 30.772375 74.3754184 30.4800417 74.2960851 29.593375 74.1167518 28.7067083 73.9367518 27.9327083 73.7780851 27.271375 73.6407518 26.6107083 73.5034184 26.1177083 73.3790851 25.792375 73.2677518 25.4677083 73.1557518 25.185375 73.0307518 24.945375 72.8927518 24.7060417 72.7554184 24.5077083 72.6550851 24.350375 72.5917518 24.1930417 72.5290851 24.113375 72.5004184 24.111375 72.5057518 24.1100417 72.5104184 24.1277083 72.5144184 24.164375 72.5177518 24.2010417 72.5204184 23.908375 72.4487518 23.286375 72.3027518 22.6637083 72.1567518 22.1967083 72.0537518 21.885375 71.9937518 21.5740417 71.9337518 21.322375 71.8860851 21.130375 71.8507518 20.9390417 71.8154184 20.8367083 71.7850851 20.823375 71.7597518 20.8100417 71.7350851 20.8180417 71.7814184 20.847375 71.8987518 20.877375 72.0154184 20.530375 71.7714184 19.806375 71.1667518 19.0830417 70.5620851 18.5487083 70.0540851 18.203375 69.6427518 17.8580417 69.2314184 17.516375 68.9194184 17.178375 68.7067518 16.8410417 68.4940851 16.696375 68.3987518 16.744375 68.4207518 16.7930417 68.4420851 16.751375 68.4214184 16.619375 68.3587518 16.4880417 68.2967518 16.156375 68.1510851 15.624375 67.9217518 15.0930417 67.6917518 14.7767083 67.5420851 14.675375 67.4727518 14.5740417 67.4027518 14.2977083 67.2460851 13.846375 67.0027518 13.394375 66.7587518 13.175375 66.6424184 13.189375 66.6537518 13.203375 66.6657518 13.1657083 66.6477518 13.076375 66.5997518 12.9870417 66.5517518 12.781375 66.4530851 12.459375 66.3037518 12.137375 66.1550851 11.824375 66.0100851 11.520375 65.8687518 11.2157083 65.7280851 10.9027083 65.5670851 10.581375 65.3857518 10.259375 65.2037518 9.899375 64.9804184 9.501375 64.7157518 9.103375 64.4510851 8.93070833 64.3334184 8.983375 64.3627518 9.03604167 64.3920851 9.03804167 64.3920851 8.989375 64.3627518 8.941375 64.3340851 8.89070833 64.2807518 8.837375 64.2027518 8.78404167 64.1247518 8.72070833 64.0907518 8.647375 64.1007518 8.573375 64.1114184 8.563375 64.1150851 8.617375 64.1117518 8.67204167 64.1090851 8.67770833 64.1064184 8.634375 64.1037518 8.59170833 64.1010851 8.59470833 64.1070851 8.643375 64.1217518 8.69204167 64.1370851 8.69070833 64.1010851 8.639375 64.0137518 8.58804167 63.9264184 8.48704167 63.8504184 8.336375 63.7857518 8.18570833 63.7210851 7.85704167 63.6600851 7.350375 63.6027518 6.844375 63.5454184 6.62670833 63.5244184 6.697375 63.5397518 6.76870833 63.5557518 6.819375 63.5610851 6.849375 63.5557518 6.87870833 63.5510851 6.83070833 63.5494184 6.705375 63.5507518 6.58004167 63.5520851 6.37204167 63.5534184 6.081375 63.5547518 5.791375 63.5567518 5.67570833 63.5594184 5.734375 63.5627518 5.79304167 63.5660851 5.80504167 63.5760851 5.770375 63.5927518 5.73570833 63.6094184 5.620375 63.6424184 5.424375 63.6917518 5.22904167 63.7410851 4.839375 63.9660851 4.255375 64.3667518 3.671375 64.7680851 3.273375 65.2554184 3.061375 65.8287518 2.849375 66.4020851 2.74170833 66.8477518 2.738375 67.1657518 2.734375 67.4837518 2.706375 67.7764184 2.654375 68.0437518 2.602375 68.3104184 2.73970833 68.6207518 3.066375 68.9747518 3.39370833 69.3280851 3.68604167 69.5997518 3.943375 69.7897518 4.201375 69.9797518 4.47704167 70.1760851 4.770375 70.3787518 5.06304167 70.5807518 5.62504167 70.8230851 6.456375 71.1057518 7.288375 71.3884184 7.97004167 71.5820851 8.501375 71.6867518 9.03270833 71.7914184 9.573375 71.8897518 10.123375 71.9817518 10.6740417 72.0737518 11.0987083 72.1414184 11.397375 72.1847518 11.695375 72.2280851 11.9380417 72.2384184 12.125375 72.2157518 12.3127083 72.1930851 13.4250417 72.6784184 15.462375 73.6717518 15.462375 73.6897518 15.452375 73.8010851 15.432375 74.0057518 15.9637083 74.0090851 15.1667083 74.1464184 13.041375 74.4177518 10.9167083 74.6890851 9.26804167 74.8394184 8.095375 74.8687518 6.92204167 74.8980851 6.12204167 74.9990851 5.695375 75.1717518 5.26870833 75.3444184 4.89370833 75.4794184 4.570375 75.5767518 4.24770833 75.6740851 4.100375 75.7230851 4.128375 75.7237518 4.156375 75.7244184 4.17204167 75.7164184 4.175375 75.6997518 4.17870833 75.6824184 4.10504167 75.7160851 3.954375 75.8007518 3.80370833 75.8854184 3.57204167 76.0927518 3.259375 76.4227518 2.947375 76.7527518 2.819375 76.9160851 2.875375 76.9127518 2.93070833 76.9087518 2.96204167 76.8780851 2.969375 76.8207518 2.977375 76.7634184 2.92004167 76.9390851 2.797375 77.3477518 2.67470833 77.7557518 2.63470833 77.8700851 2.677375 77.6907518 2.72004167 77.5114184 2.704375 77.7167518 2.630375 78.3067518 2.55704167 78.8967518 2.53370833 79.4710851 2.560375 80.0297518 2.58770833 80.5890851 2.672375 81.0077518 2.814375 81.2857518 2.956375 81.5644184 3.01370833 81.6650851 2.986375 81.5877518 2.95904167 81.5097518 3.02504167 81.6984184 3.184375 82.1537518 3.34304167 82.6090851 3.44504167 82.8807518 3.490375 82.9687518 3.53570833 83.0574184 3.593375 83.1657518 3.663375 83.2937518 3.733375 83.4217518 3.866375 83.6350851 4.062375 83.9337518 4.258375 84.2310851 4.32704167 84.3457518 4.268375 84.2777518 4.20970833 84.2097518 4.214375 84.2067518 4.282375 84.2687518 4.350375 84.3307518 4.34704167 84.3347518 4.272375 84.2807518 4.19704167 84.2274184 4.324375 84.3270851 4.654375 84.5797518 4.984375 84.8317518 5.16604167 84.9667518 5.199375 84.9847518 5.23204167 85.0027518 5.29704167 85.0407518 5.394375 85.0987518 5.49104167 85.1560851 5.64670833 85.2417518 5.861375 85.3557518 6.07670833 85.4690851 6.30070833 85.5797518 6.533375 85.6877518 6.76604167 85.7944184 6.901375 85.8317518 6.939375 85.7997518 6.97670833 85.7677518 6.96570833 85.7780851 6.906375 85.8307518 6.846375 85.8827518 7.210375 85.9297518 7.998375 85.9717518 8.78570833 86.0130851 9.64204167 85.9410851 10.567375 85.7557518 11.4920417 85.5710851 12.3410417 85.4170851 13.114375 85.2937518 13.888375 85.1704184 14.8777083 84.9857518 16.082375 84.7397518 17.2870417 84.4937518 18.2540417 84.2727518 18.983375 84.0767518 19.713375 83.8807518 20.2237083 83.7480851 20.514375 83.6787518 20.8050417 83.6094184 21.090375 83.5670851 21.370375 83.5517518 21.650375 83.5364184 21.9347083 83.5127518 22.223375 83.4807518 22.5120417 83.4480851 22.789375 83.4004184 23.055375 83.3377518 23.321375 83.2750851 23.7327083 83.1900851 24.289375 83.0827518 24.845375 82.9760851 25.447375 82.8557518 26.095375 82.7217518 26.7427083 82.5884184 27.268375 82.4817518 27.672375 82.4017518 28.076375 82.3230851 28.457375 82.2560851 28.815375 82.2007518 29.173375 82.1454184 29.3850417 82.1070851 29.450375 82.0857518 29.5157083 82.0644184 29.534375 82.0747518 29.506375 82.1167518 29.478375 82.1587518 29.7817083 82.0614184 30.416375 81.8247518 31.0510417 81.5887518 31.6520417 81.3584184 32.219375 81.1337518 32.7867083 80.9084184 33.2090417 80.7640851 33.486375 80.7007518 33.7637083 80.6374184 33.994375 80.5947518 34.178375 80.5727518 34.362375 80.5507518 34.3980417 80.5444184 34.285375 80.5537518 34.1727083 80.5630851 34.2550417 80.5750851 34.532375 80.5897518 34.532375 80.6070851 34.532375 80.6714184 34.532375 80.7827518 34.532375 79.9620851 34.532375 79.6774184 34.532375 79.9287518 34.532375 79.2987518 34.532375 79.0520851 34.532375 79.1887518 34.470375 78.2487518 34.4430417 77.9294184 34.450375 78.2307518 34.3077083 77.5154184 34.2527083 77.2304184 34.285375 77.3757518 34.277375 77.0810851 34.1830417 76.5397518 34.002375 75.7517518 33.8217083 74.9630851 33.667375 74.3780851 33.539375 73.9967518 33.4120417 73.6154184 33.3250417 73.3520851 33.278375 73.2067518 33.2317083 73.0607518 33.152375 72.8984184 33.040375 72.7197518 32.9290417 72.5410851 32.8670417 72.3620851 32.854375 72.1827518 32.8417083 72.0034184 32.2667083 71.6507518 31.129375 71.1247518 31.129375 71.1420851 31.129375 71.2707518 31.129375 71.5107518M47.665375 26.8377518C47.665375 26.8377518 47.670375 26.8377518 47.680375 26.8377518 47.690375 26.8377518 47.780375 26.8377518 47.950375 26.8377518 47.9550417 26.8570851 47.9450417 26.7544184 47.920375 26.5297518 47.882375 26.5257518 47.8280417 26.5167518 47.757375 26.5027518 47.6867083 26.4887518 47.6330417 26.4794184 47.596375 26.4747518 47.5597083 26.4700851 47.629375 26.4587518 47.805375 26.4407518 47.9820417 26.4214184 46.9147083 26.3074184 44.603375 26.0987518 42.2927083 25.8894184 40.634375 25.8204184 39.628375 25.8917518 38.6230417 25.9637518 37.748375 25.9270851 37.004375 25.7817518 36.260375 25.6364184 35.7737083 25.4654184 35.544375 25.2687518 35.3150417 25.0714184 35.215375 24.9840851 35.245375 25.0067518 35.2747083 25.0294184 35.295375 25.0420851 35.307375 25.0447518 35.3187083 25.0467518 35.2307083 24.9727518 35.043375 24.8227518 34.8560417 24.6727518 34.6620417 24.5214184 34.461375 24.3687518 34.2600417 24.2160851 34.1430417 24.1777518 34.110375 24.2537518 34.0777083 24.3297518 34.0527083 24.3500851 34.035375 24.3147518 34.0180417 24.2787518 33.7707083 24.2640851 33.293375 24.2707518 32.8167083 24.2774184 32.0720417 24.4914184 31.059375 24.9127518 30.0460417 25.3347518 29.2837083 25.7400851 28.772375 26.1287518 28.2610417 26.5180851 27.895375 26.8610851 27.675375 27.1577518 27.455375 27.4544184 27.366375 27.6177518 27.408375 27.6477518 27.450375 27.6777518 27.471375 27.6900851 27.471375 27.6847518 27.471375 27.6794184 27.4780417 27.6827518 27.491375 27.6947518 27.5040417 27.7074184 27.485375 27.9047518 27.435375 28.2867518 27.385375 28.6680851 27.3890417 28.9887518 27.446375 29.2487518 27.5037083 29.5087518 27.6310417 29.7117518 27.828375 29.8577518 28.026375 30.0037518 28.1247083 30.0794184 28.123375 30.0847518 28.1220417 30.0900851 28.338375 30.1937518 28.772375 30.3957518 29.2070417 30.5970851 29.4780417 30.7127518 29.585375 30.7427518 29.6927083 30.7727518 29.8740417 30.8410851 30.129375 30.9477518 30.3847083 31.0544184 31.0660417 31.2484184 32.173375 31.5297518 33.2807083 31.8110851 34.5270417 32.0564184 35.912375 32.2657518 35.1457083 32.2657518 34.8680417 32.2657518 35.079375 32.2657518 34.3347083 32.2657518 34.052375 32.2657518 34.232375 32.2657518 33.3777083 32.2657518 33.065375 32.2657518 33.295375 32.2657518 32.583375 32.2657518 32.2710417 32.2657518 32.358375 32.2657518 32.002375 32.3004184 31.4630417 32.4777518 30.740375 32.7977518 30.0177083 33.1177518 29.4870417 33.4077518 29.148375 33.6677518 28.8090417 33.9277518 28.621375 34.0850851 28.585375 34.1397518 28.5500417 34.1944184 28.4777083 34.3160851 28.368375 34.5047518 28.2597083 34.6934184 28.0997083 34.9804184 27.888375 35.3657518 27.6777083 35.7517518 27.5917083 35.9577518 27.630375 35.9837518 27.6697083 36.0097518 27.6760417 36.0487518 27.649375 36.1007518 27.6227083 36.1527518 27.5947083 36.3234184 27.565375 36.6127518 27.5367083 36.9020851 27.5420417 36.9804184 27.581375 36.8477518 27.621375 36.7144184 27.6137083 36.8017518 27.558375 37.1097518 27.5037083 37.4184184 27.5230417 37.9267518 27.616375 38.6347518 27.7097083 39.3427518 27.8617083 39.9384184 28.072375 40.4217518 28.2830417 40.9057518 28.550375 41.2390851 28.874375 41.4217518 29.198375 41.6050851 29.3770417 41.6927518 29.410375 41.6847518 29.4437083 41.6760851 29.4760417 41.6744184 29.507375 41.6797518 29.5387083 41.6850851 29.825375 41.6974184 30.367375 41.7167518 30.9087083 41.7360851 31.3347083 41.7140851 31.645375 41.6507518 31.955375 41.5867518 32.320375 41.4657518 32.740375 41.2877518 33.1610417 41.1097518 33.590375 40.9284184 34.028375 40.7437518 34.4670417 40.5597518 35.235375 40.2440851 36.333375 39.7967518 37.4320417 39.3500851 38.284375 39.0000851 38.890375 38.7467518 39.496375 38.4927518 40.034375 38.2200851 40.504375 37.9287518 40.974375 37.6374184 41.169375 37.5130851 41.089375 37.5557518 41.009375 37.5984184 40.9927083 37.6010851 41.039375 37.5637518 41.085375 37.5257518 41.1900417 37.4624184 41.353375 37.3737518 41.5160417 37.2844184 41.8030417 37.0497518 42.214375 36.6697518 42.6257083 36.2897518 42.9357083 35.9360851 43.144375 35.6087518 43.3537083 35.2807518 43.4730417 35.0994184 43.502375 35.0647518 43.532375 35.0294184 43.5277083 35.0414184 43.488375 35.1007518 43.4490417 35.1600851 43.5257083 34.9600851 43.718375 34.5007518 43.910375 34.0414184 44.0267083 33.7314184 44.067375 33.5707518 44.1080417 33.4107518 44.1380417 33.3150851 44.157375 33.2837518 44.1760417 33.2530851 44.1750417 33.2454184 44.154375 33.2607518 44.1337083 33.2754184 44.1300417 33.2674184 44.143375 33.2367518 44.1567083 33.2067518 44.320375 32.8570851 44.634375 32.1877518 44.9490417 31.5177518 45.1470417 31.0887518 45.228375 30.9007518 45.3097083 30.7120851 45.444375 30.2630851 45.632375 29.5537518 45.820375 28.8444184 45.980375 28.3254184 46.112375 27.9967518 46.2450417 27.6674184 46.4277083 27.3670851 46.660375 27.0957518 46.8937083 26.8250851 46.9757083 26.7327518 46.906375 26.8187518 46.8370417 26.9054184 46.8367083 26.9104184 46.905375 26.8337518 46.973375 26.7564184 47.0227083 26.6957518 47.053375 26.6517518 47.0847083 26.6084184 47.2100417 26.4720851 47.429375 26.2427518 47.6487083 26.0140851 47.7260417 25.9294184 47.661375 25.9887518 47.5967083 26.0480851 47.5830417 26.0660851 47.620375 26.0427518 47.658375 26.0187518 47.7367083 25.9617518 47.855375 25.8717518 47.973375 25.7817518 48.2047083 25.6547518 48.549375 25.4907518 48.8940417 25.3267518 49.1210417 25.2277518 49.230375 25.1937518 49.338375 25.1604184 49.3590417 25.1490851 49.292375 25.1597518 48.9517083 25.2204184 49.2340417 25.1547518 50.139375 24.9627518"/><path stroke="#000" stroke-width="6" d="M33.118375,73.1427518 C33.118375,73.1427518 33.1227083,73.0200851 33.131375,72.7747518 C33.1400417,72.5287518 33.134375,72.4874184 33.114375,72.6507518 C33.154375,72.5400851 33.1400417,72.5597518 33.071375,72.7097518 C33.0027083,72.8604184 33.0317083,72.6450851 33.158375,72.0637518 C33.284375,71.4824184 33.4130417,71.0184184 33.544375,70.6717518 C33.676375,70.3244184 33.7990417,70.0620851 33.912375,69.8847518 C34.0257083,69.7074184 34.1687083,69.5294184 34.341375,69.3507518 C34.5147083,69.1714184 34.5397083,69.1330851 34.416375,69.2357518 C34.292375,69.3384184 34.6007083,69.0214184 35.341375,68.2847518 C36.0827083,67.5480851 36.6530417,67.0177518 37.052375,66.6937518 C37.4517083,66.3704184 37.8317083,66.0747518 38.192375,65.8067518 C38.5530417,65.5380851 38.8660417,65.3027518 39.131375,65.1007518 C39.3967083,64.8980851 39.6500417,64.7080851 39.891375,64.5307518 C40.1327083,64.3534184 40.3177083,64.2164184 40.446375,64.1197518 C40.5750417,64.0230851 40.6760417,63.9460851 40.749375,63.8887518 C40.8227083,63.8314184 40.803375,63.8314184 40.691375,63.8887518 C40.579375,63.9460851 40.8490417,63.7440851 41.500375,63.2827518 C42.1517083,62.8214184 42.714375,62.4504184 43.188375,62.1697518 C43.662375,61.8884184 44.038375,61.6754184 44.316375,61.5307518 C44.594375,61.3860851 44.8310417,61.2417518 45.026375,61.0977518 C45.2210417,60.9530851 45.7220417,60.6530851 46.529375,60.1977518 C47.3367083,59.7424184 48.1237083,59.3744184 48.890375,59.0937518 C49.6570417,58.8124184 50.1767083,58.6300851 50.449375,58.5467518 C50.721375,58.4634184 51.0977083,58.3250851 51.578375,58.1317518 C52.0590417,57.9384184 53.186375,57.5154184 54.960375,56.8627518 C56.734375,56.2107518 58.616375,55.5987518 60.606375,55.0267518 C62.596375,54.4554184 64.1710417,54.0230851 65.330375,53.7297518 C66.490375,53.4357518 67.450375,53.1737518 68.210375,52.9437518 C68.9710417,52.7144184 70.2267083,52.4360851 71.977375,52.1087518 C73.7280417,51.7820851 75.017375,51.5714184 75.845375,51.4767518 C76.673375,51.3820851 77.8650417,51.2317518 79.420375,51.0257518 C80.9750417,50.8197518 82.2237083,50.6617518 83.166375,50.5517518 C84.108375,50.4417518 85.361375,50.2627518 86.925375,50.0147518 C88.4900417,49.7667518 89.866375,49.6204184 91.054375,49.5757518 C92.2430417,49.5310851 93.2377083,49.5334184 94.038375,49.5827518 C94.8390417,49.6314184 95.6917083,49.5997518 96.596375,49.4877518 C97.500375,49.3757518 98.4967083,49.2854184 99.585375,49.2167518 C100.674708,49.1474184 102.016375,49.1497518 103.610375,49.2237518 C105.204375,49.2970851 106.768042,49.3327518 108.301375,49.3307518 C109.835375,49.3280851 111.856708,49.3174184 114.365375,49.2987518 C116.874042,49.2794184 118.977708,49.3094184 120.676375,49.3887518 C122.374375,49.4680851 123.844708,49.5204184 125.087375,49.5457518 C126.330708,49.5704184 127.693708,49.6434184 129.176375,49.7647518 C130.659042,49.8867518 132.087042,50.0047518 133.460375,50.1187518 C134.833708,50.2327518 136.132708,50.3390851 137.357375,50.4377518 C138.582708,50.5357518 139.834708,50.6110851 141.113375,50.6637518 C142.392042,50.7170851 143.473042,50.7907518 144.356375,50.8847518 C145.240375,50.9794184 146.188042,51.0880851 147.199375,51.2107518 C148.210708,51.3327518 149.390708,51.4904184 150.739375,51.6837518 C152.088042,51.8770851 153.858708,52.1840851 156.051375,52.6047518 C158.244042,53.0247518 160.526375,53.4344184 162.898375,53.8337518 C165.270375,54.2330851 166.990375,54.5734184 168.058375,54.8547518 C169.126375,55.1354184 170.637708,55.5684184 172.592375,56.1537518 C174.546375,56.7384184 176.002708,57.1487518 176.961375,57.3847518 C177.920042,57.6200851 179.302375,57.9890851 181.108375,58.4917518 C182.914375,58.9944184 184.324042,59.4360851 185.337375,59.8167518 C186.350708,60.1980851 186.897042,60.3734184 186.976375,60.3427518 C187.055708,60.3120851 187.372708,60.5627518 187.927375,61.0947518 C188.482042,61.6260851 188.866708,61.9970851 189.081375,62.2077518 C189.296708,62.4190851 189.422708,62.5464184 189.459375,62.5897518 C189.496042,62.6330851 189.569042,62.7314184 189.678375,62.8847518 C189.787708,63.0374184 189.916375,63.2167518 190.064375,63.4227518 C190.212375,63.6280851 190.265375,63.7100851 190.223375,63.6687518 C190.180708,63.6280851 190.146708,63.6010851 190.121375,63.5877518 C190.095375,63.5750851 190.379375,64.1360851 190.973375,65.2707518 C191.568042,66.4047518 192.028042,67.3054184 192.353375,67.9727518 C192.678708,68.6394184 192.877375,69.1260851 192.949375,69.4327518 C193.021375,69.7394184 193.082708,70.2024184 193.133375,70.8217518 C193.184042,71.4417518 193.223042,71.9880851 193.250375,72.4607518 C193.277708,72.9334184 193.288375,73.1967518 193.282375,73.2507518 C193.277042,73.3047518 193.270375,73.3224184 193.262375,73.3037518 C193.255042,73.2850851 193.258708,73.2904184 193.273375,73.3197518 C193.288708,73.3490851 193.232708,73.6530851 193.105375,74.2317518 C192.978042,74.8097518 192.837375,75.3640851 192.683375,75.8947518 C192.529375,76.4254184 192.371375,76.7767518 192.209375,76.9487518 C192.047375,77.1207518 191.834042,77.2640851 191.569375,77.3787518 C191.304042,77.4940851 191.196375,77.5494184 191.246375,77.5447518 C191.296375,77.5394184 190.958375,77.6387518 190.232375,77.8427518 C189.507042,78.0467518 187.888042,78.8770851 185.375375,80.3337518 C182.862708,81.7910851 180.791375,82.9837518 179.161375,83.9117518 C177.531375,84.8397518 176.218375,85.5330851 175.222375,85.9917518 C174.226375,86.4510851 171.875708,87.2127518 168.170375,88.2767518"/><path stroke="#000" stroke-width="6" d="M31.740375 74.3077518C31.2137083 74.1157518 31.030375 74.0434184 31.190375 74.0907518 31.126375 74.0714184 31.0497083 74.0480851 30.960375 74.0207518 31.2030417 74.1467518 31.2770417 74.1624184 31.182375 74.0677518 31.0877083 73.9737518 31.058375 73.9450851 31.094375 73.9817518 31.130375 74.0177518 31.238375 74.1187518 31.418375 74.2847518 31.5990417 74.4507518 31.7710417 74.6294184 31.934375 74.8207518 32.098375 75.0127518 32.1770417 75.0954184 32.170375 75.0687518 32.1637083 75.0420851 32.163375 75.0310851 32.169375 75.0357518 32.1760417 75.0410851 32.377375 75.6027518 32.773375 76.7207518 33.1700417 77.8394184 33.7487083 78.7950851 34.509375 79.5877518 35.2707083 80.3797518 35.8470417 80.8997518 36.238375 81.1477518 36.6290417 81.3950851 37.2360417 81.7157518 38.059375 82.1097518 38.8827083 82.5037518 39.7110417 82.8550851 40.544375 83.1637518 41.3777083 83.4717518 42.2340417 83.7410851 43.113375 83.9717518 43.993375 84.2017518 45.3120417 84.5900851 47.069375 85.1367518 48.8267083 85.6827518 50.503375 86.3427518 52.099375 87.1167518 53.695375 87.8914184 55.7060417 88.4990851 58.131375 88.9397518 60.5567083 89.3797518 62.3460417 89.6007518 63.499375 89.6027518 64.6527083 89.6047518 65.6377083 89.6077518 66.454375 89.6117518 67.2710417 89.6164184 67.835375 89.5907518 68.147375 89.5347518 68.459375 89.4787518 69.7810417 89.5100851 72.112375 89.6287518 74.4437083 89.7467518 76.6977083 89.9210851 78.874375 90.1517518 81.0510417 90.3824184 83.1800417 90.5900851 85.261375 90.7747518 87.3427083 90.9594184 90.7560417 91.1730851 95.501375 91.4157518 100.246042 91.6577518 103.798708 91.7887518 106.159375 91.8087518 108.519375 91.8280851 110.309708 91.8784184 111.530375 91.9597518 112.751042 92.0410851 113.953708 92.0654184 115.138375 92.0327518 116.322375 92.0000851 117.684375 92.0047518 119.224375 92.0467518 120.763708 92.0880851 122.880042 92.1460851 125.573375 92.2207518 128.266708 92.2954184 130.615042 92.3137518 132.618375 92.2757518 134.621042 92.2390851 137.333375 92.1210851 140.755375 91.9217518 144.177375 91.7230851 147.633708 91.5640851 151.124375 91.4447518 154.614375 91.3260851 157.362708 91.1550851 159.369375 90.9317518 161.376042 90.7084184 162.740042 90.5254184 163.461375 90.3827518 164.183375 90.2400851 164.799375 90.1207518 165.309375 90.0247518 165.818708 89.9287518 168.148708 89.2707518 172.299375 88.0507518M27.725375 72.7827518C27.575375 72.7707518 27.5060417 72.7677518 27.517375 72.7737518 27.3000417 72.7477518 27.229375 72.7497518 27.305375 72.7797518 27.381375 72.8097518 27.3407083 72.7960851 27.183375 72.7387518 27.0260417 72.6807518 26.9047083 72.6254184 26.819375 72.5727518 26.7347083 72.5200851 26.659375 72.4740851 26.593375 72.4347518 26.5267083 72.3947518 26.4980417 72.3784184 26.507375 72.3857518 26.5167083 72.3930851 26.517375 72.3910851 26.509375 72.3797518 26.5020417 72.3677518 26.4077083 72.3347518 26.226375 72.2807518 26.0450417 72.2267518 25.8727083 72.1910851 25.709375 72.1737518 25.5460417 72.1564184 25.3000417 72.0860851 24.971375 71.9627518 24.643375 71.8400851 24.3437083 71.7440851 24.072375 71.6747518 23.8010417 71.6054184 23.5777083 71.5437518 23.402375 71.4897518 23.2270417 71.4357518 23.0897083 71.3907518 22.990375 71.3547518 22.8917083 71.3180851 22.7890417 71.2794184 22.682375 71.2387518 22.5757083 71.1980851 22.4517083 71.1540851 22.310375 71.1067518 22.1697083 71.0587518 21.9930417 71.0017518 21.780375 70.9357518 21.568375 70.8704184 21.418375 70.8304184 21.330375 70.8157518 21.2417083 70.8010851 20.9047083 70.7114184 20.319375 70.5467518 19.733375 70.3820851 19.053375 70.0484184 18.279375 69.5457518 17.505375 69.0430851 16.8930417 68.6484184 16.442375 68.3617518 15.992375 68.0757518 15.6020417 67.8134184 15.271375 67.5747518 14.9400417 67.3354184 14.702375 67.1294184 14.558375 66.9567518 14.414375 66.7840851 13.9930417 66.5584184 13.294375 66.2797518 12.596375 66.0010851 12.069375 65.7960851 11.713375 65.6647518 11.3580417 65.5334184 11.066375 65.4294184 10.838375 65.3527518 10.610375 65.2754184 10.219375 65.1857518 9.665375 65.0837518 9.111375 64.9810851 8.67604167 64.9207518 8.359375 64.9027518 8.043375 64.8847518 7.82570833 64.8844184 7.706375 64.9017518 7.58704167 64.9197518 7.484375 64.9364184 7.398375 64.9517518 7.31304167 64.9677518 7.192375 64.9964184 7.036375 65.0377518 6.87970833 65.0784184 6.64770833 65.1397518 6.340375 65.2217518 6.032375 65.3037518 5.76004167 65.3774184 5.523375 65.4427518 5.28670833 65.5087518 5.07970833 65.5934184 4.902375 65.6967518 4.72504167 65.8014184 4.58770833 65.9017518 4.490375 65.9977518 4.39304167 66.0937518 4.32904167 66.1617518 4.298375 66.2017518 4.268375 66.2424184 4.240375 66.2790851 4.214375 66.3117518 4.188375 66.3437518 4.181375 66.3577518 4.193375 66.3537518 4.205375 66.3497518 4.208375 66.3420851 4.202375 66.3307518 4.196375 66.3194184 4.12470833 66.4344184 3.987375 66.6757518 3.849375 66.9170851 3.758375 67.1147518 3.714375 67.2687518 3.670375 67.4220851 3.654375 67.5437518 3.666375 67.6337518 3.678375 67.7230851 3.69270833 67.8127518 3.709375 67.9027518 3.72604167 67.9934184 3.733375 68.0267518 3.731375 68.0027518 3.72870833 67.9787518 3.74270833 68.0570851 3.773375 68.2377518 3.80404167 68.4184184 3.81770833 68.6040851 3.814375 68.7947518 3.81170833 68.9854184 3.81204167 69.1417518 3.815375 69.2637518 3.81870833 69.3857518 3.82804167 69.5064184 3.843375 69.6257518 3.85870833 69.7444184 3.867375 69.8000851 3.869375 69.7927518 3.871375 69.7854184 3.886375 69.8157518 3.914375 69.8837518 3.94304167 69.9517518 4.07604167 70.1460851 4.313375 70.4667518 4.55004167 70.7874184 4.733375 71.0484184 4.863375 71.2497518 4.993375 71.4510851 5.078375 71.5554184 5.118375 71.5627518 5.158375 71.5694184 5.40170833 71.6727518 5.848375 71.8727518 6.29504167 72.0727518 6.79770833 72.2854184 7.356375 72.5107518 7.914375 72.7360851 8.33770833 72.9020851 8.626375 73.0087518 8.91504167 73.1147518 9.138375 73.1977518 9.296375 73.2577518 9.454375 73.3170851 9.56404167 73.3610851 9.625375 73.3897518 9.68670833 73.4184184 9.882375 73.4877518 10.212375 73.5977518 10.5417083 73.7077518 10.7780417 73.7890851 10.921375 73.8417518 11.065375 73.8944184 11.2397083 74.0147518 11.444375 74.2027518 11.6497083 74.3900851 12.0380417 74.5994184 12.609375 74.8307518 13.1800417 75.0620851 13.8027083 75.2784184 14.477375 75.4797518 14.6680417 75.5104184 14.2650417 75.5110851 13.268375 75.4817518 12.272375 75.4524184 11.471375 75.4110851 10.865375 75.3577518 10.259375 75.3037518 9.72804167 75.2834184 9.271375 75.2967518 8.815375 75.3100851 8.46870833 75.3370851 8.231375 75.3777518 7.99404167 75.4177518 7.64104167 75.4447518 7.172375 75.4587518 6.704375 75.4720851 6.05270833 75.5707518 5.217375 75.7547518 4.38204167 75.9394184 3.73604167 76.0970851 3.279375 76.2277518 2.82270833 76.3577518 2.39670833 76.5314184 2.001375 76.7487518 1.60604167 76.9660851 1.26604167 77.1897518.981375 77.4197518.696708333 77.6497518.486041667 77.9334184.349375 78.2707518.212708333 78.6080851.118708333 78.8554184.067375 79.0127518.0160416667 79.1700851-.00595833333 79.2897518.001375 79.3717518.00870833333 79.4544184.0127083333 79.5080851.013375 79.5327518.0140416667 79.5567518.0300416667 79.6417518.061375 79.7877518.0920416667 79.9337518.175708333 80.1740851.312375 80.5087518.449041667 80.8434184.555708333 81.0950851.632375 81.2637518.709041667 81.4317518.759708333 81.5537518.784375 81.6297518.809041667 81.7064184.995708333 81.8894184 1.344375 82.1787518 1.69304167 82.4680851 2.046375 82.8030851 2.404375 83.1837518 2.762375 83.5644184 3.017375 83.8707518 3.169375 84.1027518 3.321375 84.3340851 3.412375 84.4670851 3.442375 84.5017518 3.47170833 84.5364184 3.518375 84.5957518 3.582375 84.6797518 3.646375 84.7637518 3.765375 84.8940851 3.939375 85.0707518 4.113375 85.2487518 4.27470833 85.3890851 4.423375 85.4917518 4.57270833 85.5957518 4.69370833 85.6747518 4.786375 85.7287518 4.87904167 85.7820851 4.99204167 85.8500851 5.125375 85.9327518 5.25804167 86.0154184 5.45570833 86.1267518 5.718375 86.2667518 5.98104167 86.4060851 6.36470833 86.5704184 6.869375 86.7597518 7.37404167 86.9484184 7.95104167 87.1100851 8.600375 87.2447518 9.24970833 87.3800851 10.0450417 87.3894184 10.986375 87.2727518 11.9277083 87.1560851 12.6277083 87.0660851 13.086375 87.0027518 13.5450417 86.9400851 14.0347083 86.8354184 14.555375 86.6887518 15.075375 86.5414184 15.609375 86.3657518 16.157375 86.1617518 16.7047083 85.9577518 17.2380417 85.7444184 17.757375 85.5217518 18.2767083 85.2997518 18.730375 85.1344184 19.118375 85.0257518 19.5070417 84.9177518 19.9690417 84.7674184 20.504375 84.5747518 21.0397083 84.3820851 21.502375 84.2207518 21.892375 84.0907518 22.2817083 83.9607518 22.707375 83.8304184 23.169375 83.6997518 23.631375 83.5697518 24.286375 83.4467518 25.134375 83.3307518 25.9817083 83.2154184 26.7570417 83.1527518 27.460375 83.1427518 28.1637083 83.1327518 29.1780417 83.0987518 30.503375 83.0407518 31.829375 82.9827518 33.2277083 82.8527518 34.698375 82.6507518M45.088375 57.2417518C45.0637083 57.2390851 45.0597083 57.2397518 45.076375 57.2437518 45.0937083 57.2477518 45.066375 57.2230851 44.994375 57.1697518 44.922375 57.1170851 44.8127083 57.0414184 44.665375 56.9427518 44.5180417 56.8454184 44.4107083 56.7617518 44.343375 56.6917518 44.2767083 56.6217518 44.225375 56.5664184 44.189375 56.5257518 44.1527083 56.4857518 44.1440417 56.4797518 44.163375 56.5077518 44.1827083 56.5357518 44.1467083 56.4700851 44.055375 56.3107518 43.963375 56.1514184 43.758375 55.8327518 43.440375 55.3547518 43.122375 54.8754184 42.865375 54.4970851 42.669375 54.2197518 42.473375 53.9417518 42.3300417 53.6527518 42.239375 53.3527518 42.1487083 53.0527518 42.034375 52.7300851 41.896375 52.3847518 41.758375 52.0400851 41.6607083 51.7987518 41.603375 51.6607518 41.5467083 51.5227518 41.484375 51.3527518 41.416375 51.1507518 41.348375 50.9487518 41.285375 50.5490851 41.227375 49.9517518 41.1687083 49.3537518 41.1170417 48.8847518 41.072375 48.5447518 41.0277083 48.2040851 40.9730417 47.9157518 40.908375 47.6797518 40.844375 47.4430851 40.8030417 47.1157518 40.784375 46.6977518 40.7657083 46.2797518 40.8117083 45.7064184 40.922375 44.9777518 41.0337083 44.2484184 41.128375 43.6087518 41.206375 43.0587518 41.2837083 42.5080851 41.3650417 42.0970851 41.450375 41.8257518 41.5357083 41.5544184 41.597375 41.3587518 41.635375 41.2387518 41.6727083 41.1194184 41.7100417 41.0057518 41.747375 40.8977518 41.7840417 40.7890851 41.8187083 40.6837518 41.851375 40.5817518 41.8840417 40.4797518 41.909375 40.4057518 41.927375 40.3597518 41.9460417 40.3144184 41.9857083 40.1864184 42.046375 39.9757518 42.1077083 39.7657518 42.227375 39.4444184 42.405375 39.0117518 42.583375 38.5790851 42.729375 38.2520851 42.843375 38.0307518 42.9567083 37.8094184 43.1080417 37.5480851 43.297375 37.2467518 43.487375 36.9454184 43.7860417 36.4944184 44.193375 35.8937518 44.6007083 35.2930851 44.9207083 34.8224184 45.153375 34.4817518 45.3860417 34.1410851 45.7347083 33.6894184 46.199375 33.1267518 46.6640417 32.5634184 47.0167083 32.1497518 47.257375 31.8857518 47.4987083 31.6210851 47.6890417 31.4220851 47.828375 31.2887518 47.9670417 31.1547518 48.1060417 31.0210851 48.245375 30.8877518 48.3847083 30.7544184 48.6227083 30.5460851 48.959375 30.2627518 49.2960417 29.9794184 49.6280417 29.7127518 49.955375 29.4627518 50.2827083 29.2120851 50.847375 28.8064184 51.649375 28.2457518 52.451375 27.6850851 53.115375 27.2377518 53.641375 26.9037518 54.1680417 26.5697518 54.6140417 26.3270851 54.979375 26.1757518 55.3447083 26.0244184 55.7877083 25.8394184 56.308375 25.6207518 56.828375 25.4027518 57.3337083 25.1684184 57.824375 24.9177518 58.3157083 24.6677518 58.7967083 24.4237518 59.267375 24.1857518 59.737375 23.9470851 60.0937083 23.7910851 60.336375 23.7177518 60.5790417 23.6444184 61.0770417 23.4280851 61.830375 23.0687518 62.5837083 22.7094184 63.1340417 22.4684184 63.481375 22.3457518 63.8287083 22.2224184 64.2650417 22.0334184 64.790375 21.7787518 65.3150417 21.5240851 65.7947083 21.2974184 66.229375 21.0987518 66.6640417 20.8994184 67.0957083 20.7587518 67.524375 20.6767518 67.9530417 20.5947518 68.4600417 20.4427518 69.045375 20.2207518 69.631375 19.9987518 70.0667083 19.8397518 70.351375 19.7437518 70.6360417 19.6477518 70.8657083 19.5694184 71.040375 19.5087518 71.2150417 19.4474184 71.4837083 19.3660851 71.846375 19.2647518 72.2090417 19.1627518 73.0687083 18.9600851 74.425375 18.6567518 75.7820417 18.3527518 76.8250417 18.0950851 77.554375 17.8837518 78.2830417 17.6724184 78.9670417 17.5120851 79.606375 17.4027518 80.2457083 17.2927518 80.8550417 17.1817518 81.434375 17.0697518 82.0137083 16.9577518 82.6097083 16.8467518 83.222375 16.7367518 83.8350417 16.6267518 84.522375 16.5127518 85.284375 16.3947518 86.046375 16.2767518 86.6887083 16.1860851 87.211375 16.1227518 87.7340417 16.0600851 88.2127083 15.9837518 88.647375 15.8937518 89.0827083 15.8030851 89.4660417 15.7357518 89.797375 15.6917518 90.129375 15.6477518 90.6420417 15.5917518 91.335375 15.5237518 92.0280417 15.4557518 92.706375 15.3447518 93.370375 15.1907518 94.034375 15.0367518 94.8170417 14.9314184 95.718375 14.8747518 96.6197083 14.8187518 97.4210417 14.7297518 98.122375 14.6077518 98.824375 14.4844184 99.3527083 14.4014184 99.707375 14.3587518 100.062708 14.3167518 100.399042 14.2884184 100.716375 14.2737518 101.033042 14.2590851 101.278375 14.2457518 101.452375 14.2337518 101.625708 14.2224184 102.017708 14.1877518 102.628375 14.1297518 103.239042 14.0717518 103.821042 14.0130851 104.374375 13.9537518 104.927042 13.8944184 105.438042 13.8500851 105.907375 13.8207518 106.376042 13.7920851 106.815042 13.7630851 107.224375 13.7337518 107.633708 13.7044184 108.041708 13.6707518 108.448375 13.6327518 108.855042 13.5954184 109.224042 13.5857518 109.555375 13.6037518 109.886708 13.6217518 110.385042 13.6390851 111.050375 13.6557518 111.715708 13.6730851 112.459042 13.6550851 113.280375 13.6017518 114.101042 13.5484184 114.773708 13.5330851 115.298375 13.5557518 115.823708 13.5777518 116.703375 13.6084184 117.937375 13.6477518 119.170708 13.6864184 120.167708 13.7497518 120.928375 13.8377518 121.689042 13.9250851 122.376708 14.0044184 122.991375 14.0757518 123.606708 14.1477518 124.139375 14.1750851 124.589375 14.1577518 125.039375 14.1410851 125.435042 14.1497518 125.776375 14.1837518 126.117708 14.2170851 126.715042 14.2697518 127.568375 14.3417518 128.421708 14.4137518 129.601042 14.5374184 131.106375 14.7127518 132.611708 14.8874184 133.750375 14.9910851 134.522375 15.0237518 135.294375 15.0557518 136.045042 15.1614184 136.774375 15.3407518 137.504375 15.5194184 138.283375 15.6640851 139.111375 15.7747518 139.939375 15.8847518 140.573708 15.9867518 141.014375 16.0807518 141.455042 16.1754184 141.825375 16.2704184 142.125375 16.3657518 142.424708 16.4610851 143.025375 16.5714184 143.927375 16.6967518 144.829375 16.8227518 145.747042 17.0194184 146.680375 17.2867518 147.614375 17.5547518 148.308708 17.7700851 148.763375 17.9327518 149.218042 18.0960851 149.737708 18.2450851 150.322375 18.3797518 150.907708 18.5144184 151.363375 18.6310851 151.689375 18.7297518 152.014708 18.8277518 152.288375 18.9210851 152.510375 19.0097518 152.733042 19.0977518 153.341375 19.2507518 154.335375 19.4687518 155.330042 19.6874184 156.297375 19.9530851 157.237375 20.2657518 158.176708 20.5777518 158.996042 20.8444184 159.695375 21.0657518 160.394042 21.2864184 160.965375 21.4717518 161.409375 21.6217518 161.853375 21.7724184 162.113375 21.8794184 162.189375 21.9427518 162.265375 22.0060851 162.603375 22.1704184 163.203375 22.4357518 163.803375 22.7004184 164.347708 22.9397518 164.836375 23.1537518 165.325042 23.3684184 165.705375 23.5834184 165.977375 23.7987518 166.248708 24.0140851 166.671042 24.2580851 167.244375 24.5307518 167.817708 24.8040851 168.240708 25.0154184 168.513375 25.1647518 168.786042 25.3147518 169.109375 25.5327518 169.483375 25.8187518 169.856708 26.1047518 170.169042 26.3080851 170.420375 26.4287518 170.671042 26.5487518 170.982708 26.7524184 171.355375 27.0397518 171.727375 27.3264184 172.123042 27.5817518 172.542375 27.8057518 172.961042 28.0304184 173.295042 28.2160851 173.544375 28.3627518 173.793708 28.5100851 174.015375 28.7084184 174.209375 28.9577518 174.402042 29.2070851 174.728042 29.4274184 175.187375 29.6187518 175.646708 29.8100851 176.002708 30.0030851 176.255375 30.1977518 176.508708 30.3924184 176.846375 30.6414184 177.268375 30.9447518 177.689708 31.2480851 177.991042 31.4697518 178.172375 31.6097518 178.354375 31.7497518 178.603042 31.9834184 178.918375 32.3107518 179.233708 32.6380851 179.524708 32.9564184 179.791375 33.2657518 180.058042 33.5750851 180.339042 33.8637518 180.634375 34.1317518 180.930375 34.4004184 181.327375 34.8270851 181.825375 35.4117518 182.323375 35.9964184 182.689375 36.4330851 182.923375 36.7217518 183.158042 37.0097518 183.334042 37.2494184 183.451375 37.4407518 183.569375 37.6314184 183.658375 37.7644184 183.718375 37.8397518 183.778375 37.9157518 183.867042 38.0274184 183.984375 38.1747518 184.102375 38.3220851 184.194708 38.4107518 184.261375 38.4407518 184.328708 38.4707518 184.528708 38.7627518 184.861375 39.3167518 185.194042 39.8700851 185.452708 40.3257518 185.637375 40.6837518 185.822708 41.0417518 185.993042 41.3677518 186.148375 41.6617518 186.304375 41.9564184 186.421042 42.1787518 186.498375 42.3287518 186.575042 42.4794184 186.632042 42.6017518 186.669375 42.6957518 186.706042 42.7904184 186.742042 42.9070851 186.777375 43.0457518 186.812708 43.1844184 186.837042 43.2880851 186.850375 43.3567518 186.863708 43.4247518 186.874042 43.4787518 186.881375 43.5187518 186.888708 43.5587518 186.897042 43.6017518 186.906375 43.6477518 186.915708 43.6930851 186.938042 43.7497518 186.973375 43.8177518 187.008708 43.8857518 187.119375 44.0814184 187.305375 44.4047518 187.492042 44.7287518 187.617708 44.9730851 187.682375 45.1377518 187.747042 45.3030851 187.794042 45.4650851 187.823375 45.6237518 187.852708 45.7824184 187.897708 45.9597518 187.958375 46.1557518 188.018375 46.3510851 188.076375 46.5160851 188.132375 46.6507518 188.188375 46.7847518 188.231708 46.8904184 188.262375 46.9677518 188.293708 47.0450851 188.332375 47.1484184 188.378375 47.2777518 188.425042 47.4077518 188.474042 47.5840851 188.525375 47.8067518 188.577375 48.0294184 188.619708 48.2304184 188.652375 48.4097518 188.685708 48.5890851 188.713708 48.7367518 188.736375 48.8527518 188.759042 48.9687518 188.776708 49.1020851 188.789375 49.2527518 188.802042 49.4027518 188.808708 49.5134184 188.809375 49.5847518 188.810708 49.6567518 188.814708 49.7054184 188.821375 49.7307518 188.828042 49.7554184 188.820042 49.7554184 188.797375 49.7307518 188.775375 49.7054184 188.808042 49.9057518 188.895375 50.3317518 188.982708 50.7570851 189.072708 51.1757518 189.165375 51.5877518 189.258042 51.9997518 189.309708 52.2877518 189.320375 52.4517518 189.331042 52.6164184 189.351708 52.7640851 189.382375 52.8947518 189.413042 53.0240851 189.438708 53.1460851 189.459375 53.2607518 189.479375 53.3754184 189.499042 53.4850851 189.518375 53.5897518 189.537042 53.6950851 189.551708 53.7854184 189.562375 53.8607518 189.573042 53.9367518 189.576042 53.9567518 189.571375 53.9207518 189.566708 53.8847518 189.568708 53.9010851 189.577375 53.9697518 189.585375 54.0377518 189.604375 54.1860851 189.634375 54.4147518 189.664375 54.6434184 189.689708 54.8520851 189.710375 55.0407518 189.730375 55.2294184 189.759042 55.3937518 189.796375 55.5337518 189.834375 55.6737518 189.860375 55.8294184 189.874375 56.0007518 189.888375 56.1714184 189.893708 56.2957518 189.891337 56.3737518 189.887042 56.4510851 189.882708 56.5387518 189.877375 56.6367518 189.872708 56.7340851 189.867708 56.8024184 189.862375 56.8417518 189.857708 56.8810851 189.850375 56.9737518 189.840375 57.1197518 189.830375 57.2664184 189.822042 57.4044184 189.815375 57.5337518 189.808042 57.6637518 189.801042 57.7857518 189.794375 57.8997518 189.788375 58.0137518 189.782042 58.1124184 189.775375 58.1957518 189.768708 58.2790851 189.763708 58.3274184 189.760375 58.3407518 189.757042 58.3534184 189.756375 58.3527518 189.758375 58.3387518 189.759708 58.3240851 189.751375 58.4004184 189.733375 58.5677518 189.714708 58.7350851 189.722375 58.9470851 189.756375 59.2037518"/><path stroke="#000" stroke-width="6" d="M55.409375 23.5637518C55.3687083 23.4317518 55.5920417 23.1150851 56.079375 22.6137518 56.5660417 22.1130851 56.996375 21.6670851 57.370375 21.2757518 57.7450417 20.8850851 58.076375 20.4977518 58.364375 20.1137518 58.6530417 19.7297518 58.986375 19.3740851 59.364375 19.0467518 59.7417083 18.7194184 60.060375 18.4570851 60.320375 18.2597518 60.5797083 18.0624184 60.7950417 17.8930851 60.966375 17.7517518 61.138375 17.6104184 61.4420417 17.3267518 61.877375 16.9007518 62.3127083 16.4740851 62.7117083 16.1330851 63.074375 15.8777518 63.4377083 15.6224184 63.7587083 15.4147518 64.037375 15.2547518 64.3160417 15.0940851 64.7720417 14.8064184 65.405375 14.3917518 66.0387083 13.9770851 66.7887083 13.5174184 67.655375 13.0127518 68.5227083 12.5080851 69.5250417 11.9580851 70.662375 11.3627518 71.800375 10.7674184 72.7177083 10.2890851 73.414375 9.92775177 74.1110417 9.56641844 74.6157083 9.31675177 74.928375 9.17875177 75.2417083 9.04008511 75.696375 8.87475177 76.292375 8.68275177 76.8877083 8.49075177 77.6780417 8.19041844 78.663375 7.78175177 79.649375 7.37308511 80.505375 7.06175177 81.231375 6.84775177 81.957375 6.63308511 82.5107083 6.49908511 82.891375 6.44575177 83.271375 6.39241844 83.838375 6.24741844 84.592375 6.01075177 85.3470417 5.77475177 86.3200417 5.53808511 87.511375 5.30075177 88.7027083 5.06275177 89.6977083 4.86508511 90.496375 4.70775177 91.294375 4.55041844 91.9210417 4.42441844 92.376375 4.32975177 92.8310417 4.23575177 93.8867083 4.03675177 95.543375 3.73275177 97.2007083 3.42875177 98.4597083 3.17108511 99.320375 2.95975177 100.181042 2.74908511 101.110042 2.56841844 102.107375 2.41775177 103.105375 2.26775177 104.279375 2.08841844 105.629375 1.87975177 106.979375 1.67175177 108.042708 1.50441844 108.819375 1.37775177 109.596042 1.25175177 110.967708 1.09508511 112.934375.907751773 114.900375.721085106 116.398375.579085106 117.428375.481751773 118.458375.383751773 119.270708.31141844 119.865375.264751773 120.460708.218751773 121.041375.180751773 121.607375.150751773 122.174042.12141844 123.166375.0830851064 124.584375.035751773 126.002375-.0115815603 127.507708-.0119148936 129.100375.034751773 130.693042.0820851064 131.883375.115751773 132.671375.135751773 133.460042.155751773 134.212708.153085106 134.929375.127751773 135.646708.10241844 136.224375.11541844 136.662375.166751773 137.101042.218085106 137.952042.316085106 139.215375.460751773 140.479375.60541844 141.442708.683085106 142.105375.693751773 142.768042.705085106 143.421042.761751773 144.064375.863751773 144.707708.96641844 145.188042 1.05475177 145.505375 1.12875177 145.822708 1.20208511 146.231042 1.27808511 146.730375 1.35675177 147.229708 1.43475177 147.671375 1.49108511 148.055375 1.52575177 148.439375 1.55975177 148.920708 1.63775177 149.499375 1.75975177 150.078042 1.88108511 150.610708 2.03075177 151.097375 2.20875177 151.583375 2.38675177 151.995708 2.53675177 152.334375 2.65875177 152.672375 2.78141844 153.190708 2.94775177 153.889375 3.15775177 154.588042 3.36841844 155.201708 3.57108511 155.730375 3.76575177 156.259708 3.96041844 156.808708 4.22908511 157.377375 4.57175177 157.946042 4.91508511 158.582042 5.23875177 159.285375 5.54275177 159.989375 5.84741844 160.541708 6.11608511 160.942375 6.34875177 161.343042 6.58208511 161.666708 6.78841844 161.913375 6.96775177 162.160042 7.14641844 162.697708 7.53541844 163.526375 8.13475177 164.355708 8.73408511 165.072042 9.28308511 165.675375 9.78175177 166.279375 10.2810851 166.806042 10.6990851 167.255375 11.0357518 167.704708 11.3724184 168.102375 11.7260851 168.448375 12.0967518 168.793708 12.4667518 169.074042 12.7294184 169.289375 12.8847518 169.504708 13.0400851 169.831375 13.2757518 170.269375 13.5917518 170.706708 13.9077518 171.030708 14.1754184 171.241375 14.3947518 171.452042 14.6140851 171.779042 14.9820851 172.222375 15.4987518 172.665042 16.0154184 173.006042 16.3934184 173.245375 16.6327518 173.484042 16.8720851 173.643042 17.0654184 173.722375 17.2127518 173.801708 17.3594184 173.869708 17.4930851 173.926375 17.6137518 173.982375 17.7350851 174.014375 17.8730851 174.022375 18.0277518 174.029708 18.1830851 174.227375 18.4777518 174.615375 18.9117518 175.002708 19.3457518 175.292375 19.6874184 175.484375 19.9367518 175.676375 20.1860851 175.858708 20.4664184 176.031375 20.7777518 176.204042 21.0897518 176.435375 21.3717518 176.725375 21.6237518 177.015375 21.8764184 177.239375 22.0780851 177.397375 22.2287518 177.555375 22.3787518 177.677708 22.4964184 177.764375 22.5817518 177.851042 22.6670851 177.946708 22.7920851 178.051375 22.9567518 178.156042 23.1220851 178.254708 23.3400851 178.347375 23.6107518 178.440708 23.8820851 178.582042 24.1450851 178.771375 24.3997518 178.960042 24.6530851 179.095375 24.8640851 179.177375 25.0327518 179.260042 25.2007518 179.313375 25.3820851 179.337375 25.5767518 179.362042 25.7720851 179.393375 25.9350851 179.431375 26.0657518 179.470042 26.1957518 179.498375 26.2847518 179.516375 26.3327518 179.534375 26.3814184 179.557042 26.4394184 179.584375 26.5067518 179.611042 26.5740851 179.631375 26.6214184 179.645375 26.6487518 179.658708 26.6760851 179.665375 26.6827518 179.665375 26.6687518 179.665375 26.6554184 179.685375 26.7050851 179.725375 26.8177518 179.764708 26.9310851 179.881042 27.2007518 180.074375 27.6267518 180.267708 28.0527518 180.489375 28.4484184 180.739375 28.8137518 180.988708 29.1777518 181.384708 29.8970851 181.927375 30.9717518M45.745375 46.3277518C45.661375 46.3257518 45.3187083 46.3884184 44.717375 46.5157518 44.6640417 46.4590851 44.735375 46.3520851 44.931375 46.1947518 45.127375 46.0380851 45.345375 45.8757518 45.585375 45.7077518 45.8260417 45.5404184 46.117375 45.3657518 46.459375 45.1837518 46.8000417 45.0017518 47.3100417 44.7507518 47.989375 44.4307518 48.6687083 44.1100851 49.3747083 43.7777518 50.107375 43.4337518 50.839375 43.0897518 51.8420417 42.6450851 53.115375 42.0997518 54.3880417 41.5537518 55.4317083 41.1190851 56.246375 40.7957518 57.060375 40.4724184 57.6710417 40.2260851 58.078375 40.0567518 58.4857083 39.8867518 58.809375 39.7567518 59.049375 39.6667518 59.2900417 39.5774184 59.7007083 39.4170851 60.281375 39.1857518 60.8620417 38.9537518 61.9347083 38.5974184 63.499375 38.1167518 65.0640417 37.6367518 67.551375 37.0680851 70.961375 36.4107518 74.371375 35.7534184 76.9337083 35.2650851 78.648375 34.9457518 80.3630417 34.6270851 81.5957083 34.4007518 82.346375 34.2667518 83.096375 34.1320851 83.908375 33.9924184 84.782375 33.8477518 85.656375 33.7030851 86.702375 33.5424184 87.920375 33.3657518 89.1390417 33.1884184 90.556375 33.0207518 92.172375 32.8627518 93.788375 32.7047518 95.0020417 32.5917518 95.813375 32.5237518 96.6240417 32.4557518 97.8087083 32.3917518 99.367375 32.3317518 100.926708 32.2710851 102.247708 32.2154184 103.330375 32.1647518 104.413042 32.1140851 105.678375 32.0814184 107.126375 32.0667518 108.574375 32.0534184 109.677042 32.0554184 110.434375 32.0727518 111.191042 32.0900851 111.775042 32.0997518 112.186375 32.1017518 112.597042 32.1037518 113.771042 32.1460851 115.708375 32.2287518 117.645042 32.3114184 119.171708 32.3920851 120.288375 32.4707518 121.405042 32.5500851 122.251042 32.6114184 122.826375 32.6547518 123.401708 32.6987518 124.055375 32.7527518 124.787375 32.8167518 125.518708 32.8807518 126.555708 32.9910851 127.898375 33.1477518 129.241042 33.3044184 130.324375 33.4390851 131.148375 33.5517518 131.972375 33.6644184 132.725042 33.7704184 133.406375 33.8697518 134.087708 33.9690851 135.751375 34.2150851 138.397375 34.6077518 141.044042 34.9990851 143.178708 35.2937518 144.801375 35.4917518 146.424708 35.6897518 147.647042 35.8330851 148.468375 35.9217518 149.289708 36.0097518 150.016375 36.0904184 150.648375 36.1637518 151.279708 36.2370851 152.967708 36.4434184 155.712375 36.7827518M54.973375 26.2157518C54.8120417 26.1677518 54.655375 26.1170851 54.503375 26.0637518 54.3520417 26.0097518 54.1867083 26.0687518 54.007375 26.2407518M53.719375 25.6337518C53.733375 25.6050851 53.6187083 25.5877518 53.375375 25.5817518 53.1320417 25.5757518 52.917375 25.5910851 52.731375 25.6277518 52.5447083 25.6637518 52.3517083 25.7077518 52.152375 25.7597518 51.9530417 25.8117518 51.7897083 25.8610851 51.662375 25.9077518 51.5350417 25.9550851 51.443375 25.9844184 51.387375 25.9957518 51.3307083 26.0070851 51.2167083 26.0640851 51.045375 26.1667518 50.8747083 26.2687518 50.645375 26.3374184 50.357375 26.3727518 50.069375 26.4080851 49.858375 26.4164184 49.724375 26.3977518 49.5897083 26.3784184 49.4687083 26.3517518 49.361375 26.3177518 49.2540417 26.2850851 49.1550417 26.2554184 49.064375 26.2287518 48.974375 26.2020851 48.919375 26.1827518 48.899375 26.1707518 48.879375 26.1580851 48.7627083 26.1364184 48.549375 26.1057518 48.3360417 26.0744184 48.1600417 26.0514184 48.021375 26.0367518 47.8827083 26.0220851 47.7327083 26.0164184 47.571375 26.0197518 47.409375 26.0224184 47.2567083 26.0567518 47.113375 26.1227518 46.969375 26.1887518 46.7470417 26.2007518 46.446375 26.1587518 46.146375 26.1160851 45.9397083 26.0624184 45.826375 25.9977518 45.7137083 25.9330851 45.512375 25.8634184 45.222375 25.7887518 44.932375 25.7134184 44.5537083 25.6157518 44.086375 25.4957518 43.6197083 25.3750851 43.2707083 25.2594184 43.039375 25.1487518 42.8080417 25.0374184 42.5637083 24.9440851 42.306375 24.8687518 42.0490417 24.7940851 41.654375 24.6920851 41.122375 24.5627518 40.590375 24.4327518 40.1940417 24.3067518 39.933375 24.1847518 39.6727083 24.0627518 39.3147083 23.9050851 38.859375 23.7117518 38.4040417 23.5184184 38.0547083 23.3850851 37.811375 23.3117518 37.5680417 23.2390851 37.275375 23.0874184 36.933375 22.8567518 36.591375 22.6260851 36.2950417 22.4584184 36.044375 22.3537518 35.7930417 22.2490851 35.555375 22.1994184 35.331375 22.2047518 35.1080417 22.2100851 34.701375 22.2337518 34.111375 22.2757518 33.5220417 22.3184184 33.059375 22.3624184 32.723375 22.4077518 32.3880417 22.4537518 32.144375 22.5037518 31.992375 22.5577518 31.8410417 22.6110851 31.7187083 22.6544184 31.625375 22.6877518 31.5320417 22.7210851 31.4620417 22.7480851 31.415375 22.7687518 31.3680417 22.7894184 31.3290417 22.8057518 31.298375 22.8177518 31.268375 22.8297518 31.2240417 22.8490851 31.165375 22.8757518 31.1067083 22.9017518 31.0430417 22.9300851 30.974375 22.9607518 30.9057083 22.9914184 30.829375 23.0280851 30.745375 23.0707518 30.6620417 23.1140851 30.6120417 23.1407518 30.595375 23.1507518 30.5787083 23.1607518 30.3390417 23.2417518 29.876375 23.3937518 29.414375 23.5457518 29.0417083 23.6830851 28.758375 23.8057518 28.474375 23.9284184 28.2000417 24.0914184 27.935375 24.2947518 27.6700417 24.4974184 27.453375 24.6737518 27.285375 24.8237518 27.1167083 24.9737518 26.9187083 25.1254184 26.691375 25.2787518 26.463375 25.4320851 26.2260417 25.5834184 25.979375 25.7327518 25.7320417 25.8814184 25.5440417 26.0147518 25.415375 26.1327518 25.2867083 26.2507518 25.2067083 26.5640851 25.175375 27.0727518 25.1440417 27.5814184 25.1577083 27.9997518 25.216375 28.3277518 25.274375 28.6557518 25.3487083 28.9247518 25.439375 29.1347518 25.5307083 29.3440851 25.6060417 29.5087518 25.665375 29.6287518 25.7247083 29.7480851 25.8100417 29.8524184 25.921375 29.9417518 26.0327083 30.0310851 26.1730417 30.1077518 26.342375 30.1717518 26.5110417 30.2357518 26.868375 30.3697518 27.414375 30.5737518 27.9597083 30.7784184 28.396375 30.9414184 28.724375 31.0627518 29.0530417 31.1834184 29.2880417 31.2550851 29.429375 31.2777518 29.5707083 31.3010851 29.7630417 31.3274184 30.006375 31.3567518 30.2497083 31.3854184 30.486375 31.4064184 30.716375 31.4197518 30.946375 31.4324184 31.1157083 31.4384184 31.224375 31.4377518 31.3330417 31.4370851 31.469375 31.4400851 31.633375 31.4467518 31.797375 31.4540851 31.9490417 31.4717518 32.088375 31.4997518 31.9977083 31.4724184 31.9547083 31.4690851 31.959375 31.4897518 31.8440417 31.5564184 31.771375 31.5987518 31.741375 31.6167518 31.7107083 31.6354184 31.6967083 31.6434184 31.699375 31.6407518 31.6507083 31.6667518 31.5907083 31.7054184 31.519375 31.7567518 31.4467083 31.8087518 31.2420417 31.8767518 30.905375 31.9607518 30.5680417 32.0447518 30.3010417 32.1194184 30.104375 32.1847518 29.9070417 32.2500851 29.6100417 32.3860851 29.213375 32.5927518 28.817375 32.7987518 28.410375 33.0227518 27.992375 33.2647518 27.574375 33.5067518 27.3047083 33.6750851 27.183375 33.7697518 27.061375 33.8650851 26.941375 33.9864184 26.823375 34.1337518 26.7047083 34.2817518 26.5730417 34.6034184 26.428375 35.0987518 26.2830417 35.5940851 26.209375 36.0117518 26.207375 36.3517518 26.205375 36.6910851 26.1830417 37.0104184 26.140375 37.3097518 26.0970417 37.6084184 26.0527083 37.8794184 26.007375 38.1227518 25.9620417 38.3667518 25.968375 38.6544184 26.026375 38.9857518 26.0837083 39.3177518 26.1940417 39.6204184 26.357375 39.8937518 26.521375 40.1664184 26.6587083 40.3794184 26.769375 40.5327518 26.8800417 40.6867518 26.9660417 40.7997518 27.027375 40.8717518 27.0880417 40.9444184 27.1620417 41.0354184 27.249375 41.1447518 27.3367083 41.2534184 27.4327083 41.3670851 27.537375 41.4857518 27.641375 41.6044184 27.6960417 41.6654184 27.701375 41.6687518 27.7067083 41.6714184 27.856375 41.8810851 28.150375 42.2977518 28.4450417 42.7137518 28.6600417 42.9974184 28.795375 43.1487518 28.9300417 43.2987518 29.0967083 43.4330851 29.295375 43.5517518 29.4947083 43.6710851 29.723375 43.7067518 29.981375 43.6587518 30.239375 43.6114184 30.621375 43.5800851 31.127375 43.5647518 31.6340417 43.5494184 32.0170417 43.5577518 32.276375 43.5897518 32.5370417 43.6224184 32.7230417 43.6257518 32.834375 43.5997518 32.9457083 43.5730851 33.0340417 43.5494184 33.099375 43.5287518 33.1647083 43.5087518 33.2257083 43.4874184 33.282375 43.4647518 33.3390417 43.4420851 33.377375 43.4250851 33.397375 43.4137518 33.4180417 43.4017518 33.4827083 43.3634184 33.591375 43.2987518 33.7000417 43.2340851 33.753375 43.2000851 33.751375 43.1967518 33.7557083 43.1910851 33.7727083 43.1710851 33.803375 43.1317518 33.8347083 43.0924184 33.8490417 43.0737518 33.846375 43.0757518 33.8437083 43.0784184 33.8597083 43.0470851 33.894375 42.9817518 33.9290417 42.9157518 33.958375 42.8660851 33.982375 42.8327518 34.006375 42.7987518 34.0857083 42.7234184 34.220375 42.6067518 34.3557083 42.4894184 34.487375 42.3817518 34.615375 42.2837518 34.7440417 42.1857518 34.8297083 42.1197518 34.872375 42.0857518 34.9157083 42.0517518 34.9697083 42.0057518 35.034375 41.9477518 35.098375 41.8904184 35.132375 41.8584184 35.136375 41.8517518 35.140375 41.8450851 35.149375 41.8357518 35.163375 41.8237518 35.1780417 41.8124184 35.166375 41.8240851 35.128375 41.8587518 35.0910417 41.8947518 35.1850417 41.7104184 35.410375 41.3057518 35.636375 40.9010851 35.8220417 40.5854184 35.967375 40.3587518 36.1127083 40.1327518 36.248375 39.9667518 36.374375 39.8607518 36.500375 39.7554184 36.6127083 39.6830851 36.711375 39.6437518 36.8107083 39.6037518 36.891375 39.5717518 36.953375 39.5477518 37.0160417 39.5237518 37.0430417 39.5114184 37.034375 39.5107518 37.026375 39.5100851 37.0650417 39.5157518 37.150375 39.5277518 37.2357083 39.5404184 37.5137083 39.4317518 37.984375 39.2017518 38.4557083 38.9724184 38.8450417 38.7857518 39.152375 38.6417518 39.460375 38.4970851 39.878375 38.3887518 40.406375 38.3167518 40.934375 38.2440851 41.8677083 37.9260851 43.206375 37.3627518"/></g></svg>