<svg xmlns="http://www.w3.org/2000/svg" width="220" height="420" viewBox="0 0 220 420"><g fill="none" fill-rule="evenodd" stroke-linecap="round" stroke-linejoin="round" transform="translate(7.486 9)"><path fill="#009EF1" fill-rule="nonzero" stroke="#009EF1" stroke-width=".5" d="M69.435 308.809C69.4476667 308.645667 69.279 308.282 68.929 307.718 68.579 307.154667 68.3983333 306.942 68.387 307.08 68.375 307.218 68.3776667 307.251 68.395 307.179 68.4116667 307.106333 68.157 306.979667 67.631 306.799 67.1056667 306.618333 66.366 306.406667 65.412 306.164 64.458 305.922 63.741 305.735333 63.261 305.604 62.7803333 305.472667 62.459 305.369333 62.297 305.294 62.135 305.218667 61.8423333 305.064667 61.419 304.832 60.9956667 304.599333 60.6666667 304.412 60.432 304.27 60.1973333 304.128 60.0643333 304.046333 60.033 304.025 60.0023333 304.003 60.051 304.023 60.179 304.085 60.3063333 304.147 60.022 304.022333 59.326 303.711 59.2146667 304.505667 59.153 304.991 59.141 305.167 59.129 305.342333 59.131 305.378333 59.147 305.275 59.071 306.576333 59.047 306.990333 59.075 306.517 59.1976667 307.075 59.2793333 307.309 59.32 307.219 60.0693333 307.553 60.3443333 307.676 60.145 307.588 60.809 307.829333 61.1406667 307.93 61.14 307.89 61.2873333 307.873333 63.805 308.055 68.693 308.435 73.5816667 308.815667 78.0693333 309.157667 82.156 309.461 86.242 309.765 89.6856667 309.822667 92.487 309.634 95.2883333 309.446 97.5826667 309.354 99.37 309.358 101.157333 309.362 102.533333 309.325333 103.498 309.248 104.463333 309.171333 106.306333 309.211667 109.027 309.369 111.747667 309.526333 115.463333 309.788667 120.174 310.156 120.128 310.216 120.207 310.457 120.411 310.879 120.614333 311.300333 120.740333 311.497333 120.789 311.47 120.838333 311.442667 120.858333 311.433667 120.849 311.443 120.839667 311.452333 120.842 311.458 120.856 311.46 120.870667 311.462 120.926333 311.494 121.023 311.556 121.120333 311.618 121.999667 311.968 123.661 312.606 123.397667 312.148 123.381 312.323 123.611 313.131 123.840333 313.938333 124.029667 314.55 124.179 314.966 124.327667 315.381333 124.587 315.757333 124.957 316.094 125.327667 316.431333 125.481667 316.572667 125.419 316.518 125.357 316.462667 125.363667 316.469333 125.439 316.538 125.513667 316.606667 125.508333 316.597 125.423 316.509 125.337667 316.421 125.483667 316.556333 125.861 316.915 126.239 317.273667 126.493333 317.517667 126.624 317.647 126.754667 317.776333 126.783 317.813 126.709 317.757 126.635 317.701667 126.754667 317.828 127.068 318.136 127.381333 318.443333 127.779667 319.014667 128.263 319.85 128.746333 320.684667 129.143 321.418 129.453 322.05 129.763 322.681333 129.974333 323.135 130.087 323.411 130.199667 323.687 130.246 323.787333 130.226 323.712 130.206667 323.636667 130.304 323.962667 130.518 324.69 130.732667 325.416667 130.846667 325.610333 130.86 325.271 130.873333 324.931667 130.89 325.216333 130.91 326.125 130.930667 327.033667 130.928667 327.735333 130.904 328.23 130.879333 328.724667 130.843333 329.171667 130.796 329.571 130.749333 329.970333 130.712667 330.163667 130.686 330.151 130.659333 330.138333 130.640667 330.141333 130.63 330.16 130.619333 330.178667 130.626 330.180333 130.65 330.165 130.674667 330.149667 130.633 330.204333 130.525 330.329 130.416333 330.453667 130.23 330.682333 129.966 331.015 129.701333 331.347667 129.576 331.517333 129.59 331.524 129.604 331.53 129.616667 331.516667 129.628 331.484 129.639333 331.450667 129.531 331.616667 129.303 331.982 129.075 332.348 128.990667 332.603667 129.05 332.749 129.11 332.894333 128.813 333.657333 128.159 335.038 127.505667 336.419333 126.943667 337.332667 126.473 337.778 126.002333 338.222667 125.611667 338.608 125.301 338.934 124.989667 339.26 124.958 339.345333 125.206 339.19 125.454 339.035333 124.388 339.834 122.008 341.586 122.000667 341.533333 121.763667 341.244 121.297 340.718 120.830333 340.192 120.61 339.963667 120.636 340.033 120.662 340.102333 120.544 340.092667 120.282 340.004 120.019333 339.915333 120.019 339.852333 120.281 339.815 120.543 339.777 118.514 339.551333 114.194 339.138 109.874 338.724667 105.780667 338.592 101.914 338.74 98.0473333 338.888 95.296 339.064333 93.66 339.269 92.0233333 339.473667 90.2713333 339.633333 88.404 339.748 86.5366667 339.862667 84.4993333 340.222 82.292 340.826 80.0853333 341.430667 78.459 341.828667 77.413 342.02 76.3676667 342.210667 75.2866667 342.374 74.17 342.51 73.0533333 342.646 72.3366667 342.820333 72.02 343.033 71.704 343.245 71.5106667 343.365 71.44 343.393 71.37 343.421 71.3476667 343.431 71.373 343.423 71.3983333 343.415 71.404 343.414667 71.39 343.422 71.376 343.428667 71.377 343.428667 71.393 343.422 71.409 343.416 71.4196667 343.406333 71.425 343.393 71.4296667 343.380333 71.4253333 343.380333 71.412 343.393 71.3986667 343.405667 71.3543333 343.424333 71.279 343.449 71.2036667 343.473 71.2113333 343.476333 71.302 343.459 71.3926667 343.441667 71.217 343.506 70.775 343.652 70.3323333 343.798 69.8773333 343.940333 69.41 344.079 68.9426667 344.217 68.7886667 344.196667 68.948 344.018 69.1966667 344.082667 69.1 343.949333 68.658 343.618 68.2166667 343.287333 67.7253333 342.974333 67.184 342.679 66.642 342.383667 66.372 342.235667 66.374 342.235 66.3766667 342.233667 66.3963333 342.239667 66.433 342.253 66.4703333 342.266333 66.3156667 342.204333 65.969 342.067 65.6216667 341.930333 65.4593333 341.869333 65.482 341.884 65.5053333 341.898667 65.2946667 341.825667 64.85 341.665 64.4053333 341.504333 64.1823333 341.431667 64.181 341.447 64.663 341.587667 64.487 341.531 63.653 341.277 62.8183333 341.023667 62.0823333 340.804333 61.445 340.619 60.8076667 340.433667 60.2193333 340.286 59.68 340.176 59.1406667 340.066 59.0043333 340.034333 59.271 340.081 59.5376667 340.128333 59.5743333 340.141333 59.381 340.12 59.1876667 340.099333 58.9126667 340.08 58.556 340.062 58.1986667 340.044667 58.031 340.036333 58.053 340.037 58.0743333 340.037 58.1466667 340.040667 58.27 340.048 58.3933333 340.056 58.093 340.038667 57.369 339.996 57.405 339.373333 57.4203333 339.106667 57.415 339.196 57.7496667 337.73 57.8743333 337.227667 57.789 337.689 57.9963333 336.841667 58.0576667 336.547667 57.973 336.807 57.8883333 337.065667 58.148 335.146 58.752 331.048 59.3553333 326.95 59.88 323.911333 60.326 321.932 60.7726667 319.953333 61.0536667 318.543 61.169 317.701 61.285 316.859667 61.349 316.187333 61.361 315.684 61.373 315.180667 61.3823333 314.928333 61.389 314.927 61.3956667 314.925667 61.4076667 314.988 61.425 315.114 61.4423333 315.239333 61.3873333 314.88 61.26 314.036 61.1326667 313.192 61.086 312.532 61.12 312.056 61.154 311.58 61.0873333 310.975 60.92 310.241 60.7526667 309.506333 60.5593333 308.888333 60.34 308.387 60.1206667 307.885667 59.9446667 307.554333 59.812 307.393 59.6793333 307.231667 59.473 306.967333 59.193 306.6 58.913 306.233333 58.8113333 306.099333 58.888 306.198 58.9646667 306.297333 58.989 306.339333 58.961 306.324 58.933 306.308 58.8813333 306.217667 58.806 306.053 58.73 305.889 58.6316667 305.663 58.511 305.375 58.391 305.087667 58.3193333 304.89 58.296 304.782 57.8633333 304.879333 57.616 304.972 57.554 305.06M80.856 350.703C81.1333333 350.567667 79.5833333 350.867333 76.206 351.602 76.2013333 351.683333 76.1943333 351.802667 76.185 351.96 77.0563333 352.010667 77.3523333 352.028 77.073 352.012 77.071 352.184 77.1596667 352.167667 77.339 351.963 77.5183333 351.759 77.651 351.614 77.737 351.528 77.8236667 351.442667 77.9953333 351.288333 78.252 351.065 78.5093333 350.841667 78.8043333 350.588667 79.137 350.306 79.4696667 350.023333 79.6153333 349.942333 79.574 350.063 80.7766667 350.133 81.175 350.156333 80.769 350.133 82.089 350.209667 82.5493333 350.236333 82.15 350.213 83.474 350.290333 83.927 350.316667 83.509 350.292 84.6576667 350.358667 85.1 350.384333 84.836 350.369 84.882 350.347667 86.464 350.699667 89.582 351.425 92.7 352.150333 95.4543333 352.525667 97.845 352.551 100.235667 352.577 102.013667 352.532333 103.179 352.417 104.344333 352.301 107.74 349.491333 113.366 343.988 113.336667 343.986667 113.227 343.980333 113.037 343.969 113.037667 344.551 113.066 344.754 113.122 344.578 113.142667 344.604667 113.336667 344.735667 113.704 344.971 113.667333 345.057 113.151667 345.767 112.157 347.101 111.161667 348.434333 110.413 349.912 109.911 351.534 109.408333 353.156 109.048 355.044333 108.83 357.199 108.611333 359.353667 108.534 361.101667 108.598 362.443 108.662 363.784333 108.774 364.932333 108.934 365.887 109.094 366.841667 109.446 368.190333 109.99 369.933 110.533333 371.675667 111.058 373.013 111.564 373.945 112.069333 374.877667 112.543667 375.574333 112.987 376.035 113.430333 376.495667 113.668667 376.836 113.702 377.056 113.735333 377.275333 113.804667 377.471667 113.91 377.645 114.016 377.817667 114.060667 377.914333 114.044 377.935 114.027333 377.956333 114.097333 378.281 114.254 378.909 114.410667 379.537 114.523 380.345 114.591 381.333 114.659 382.321 114.567 383.640333 114.315 385.291 114.063 386.942333 114.129333 390.538 114.514 396.078 114.543333 396.079333 114.572667 396.081 114.602 396.083 114.658667 395.110333 114.676667 394.800667 114.656 395.154 114.372667 394.318 114.267667 394.044333 114.341 394.333 113.719 393.767667 113.488667 393.565667 113.65 393.727 112.771333 392.833 111.141 392.540333 108.759 392.849 106.377 393.158333 104.701333 393.393333 103.732 393.554 102.762 393.714667 101.709333 393.759 100.574 393.687 99.4393333 393.615 98.317 393.485667 97.207 393.299 96.0976667 393.112333 95.5236667 392.994 95.485 392.944 95.447 392.893333 95.052 392.817333 94.3 392.716 93.5473333 392.614 92.997 392.555333 92.649 392.54 92.301 392.525333 91.9406667 392.505667 91.568 392.481 91.196 392.457 90.877 392.438 90.611 392.424 90.3443333 392.409333 90.2203333 392.403667 90.239 392.407 90.2576667 392.410333 90.321 392.408667 90.429 392.402 90.5363333 392.394667 89.7423333 392.378 88.047 392.352 88.0483333 392.326667 87.951 392.107 87.755 391.693"/><path stroke="#000" stroke-width="4.061" d="M56.928,307.418 L58.357,307.319 C60.1343333,307.323667 62.809,307.358333 66.381,307.423 C69.9536667,307.487 73.696,307.598333 77.608,307.757 C81.52,307.915 84.484,308.047 86.5,308.153 C88.516,308.258333 90.5996667,308.339667 92.751,308.397 C94.9023333,308.453667 96.709,308.487 98.171,308.497 C99.6323333,308.507 101.885333,308.485333 104.93,308.432 C107.974,308.378 110.684333,308.33 113.061,308.288 C115.437667,308.245333 117.132333,308.21 118.145,308.182 C119.158333,308.154 120.367667,308.132667 121.773,308.118 C123.179,308.103333 124.664333,308.074667 126.229,308.032 C127.794333,307.989333 129.384333,307.956333 130.999,307.933"/><path stroke="#000" stroke-width="3.962" d="M57.4,311.463 C57.3486667,312.293 57.32,312.786 57.314,312.942 C57.3073333,313.098 57.3093333,313.281 57.32,313.491 C57.3306667,313.701 57.3713333,314.574333 57.442,316.111 C57.512,317.647 57.7266667,320.000667 58.086,323.172 C58.4453333,326.342667 58.7593333,328.806333 59.028,330.563 C59.2966667,332.320333 59.5866667,334.220667 59.898,336.264 C60.2086667,338.308 60.5156667,340.262667 60.819,342.128 L61.302,344.722"/><path stroke="#000" stroke-width="3.925" d="M60.063,344.564 C60.3223333,344.542667 60.689,344.473667 61.163,344.357 C61.637,344.240333 62.7386667,344.045 64.468,343.771 C66.198,343.497667 67.6836667,343.279333 68.925,343.116 C70.167,342.952667 71.824,342.760333 73.896,342.539 C75.9673333,342.317667 78.5683333,342.095333 81.699,341.872 C84.8296667,341.648 87.446,341.485 89.548,341.383 C91.65,341.281 93.8196667,341.198 96.057,341.134 C98.2943333,341.069333 100.678667,341.028667 103.21,341.012 C105.741333,340.994667 107.694667,340.993 109.07,341.007 C110.445333,341.020333 111.504333,341.022 112.247,341.012 C112.990333,341.002667 113.778,340.983333 114.61,340.954 C115.442667,340.924667 116.324,340.903 117.254,340.889 C118.183333,340.875667 118.986667,340.870333 119.664,340.873 C120.341333,340.875667 121.074,340.894 121.862,340.928 C122.650667,340.962 123.368,340.987 124.014,341.003 C124.660667,341.019 125.386333,341.028333 126.191,341.031 C126.996333,341.033 128.585667,341.015 130.959,340.977"/><path stroke="#000" stroke-width="3.954" d="M128.378,342.868 C128.546667,341.718667 128.718667,340.353667 128.894,338.773 C129.07,337.192333 129.249667,335.390667 129.433,333.368 C129.615667,331.345333 129.748667,329.302667 129.832,327.24 C129.915333,325.177333 129.989,323.232 130.053,321.404 C130.117667,319.576 130.209333,317.205 130.328,314.291 C130.446,311.376333 130.51,309.614 130.52,309.004 C130.53,308.394667 130.545,307.734 130.565,307.022"/><path stroke="#000" stroke-width="3.923" d="M73.721,349.408 C73.807,349.641333 74.2743333,350.894333 75.123,353.167 C75.971,355.440333 76.6526667,357.292333 77.168,358.723 C77.6833333,360.154333 78.087,361.298 78.379,362.154 C78.6716667,363.01 78.9246667,363.793333 79.138,364.504 C79.3506667,365.214 79.5783333,365.955333 79.821,366.728 C80.0636667,367.500667 80.269,368.145 80.437,368.661 C80.605,369.177 80.9676667,370.38 81.525,372.27 C82.0823333,374.16 82.836,376.928333 83.786,380.575 C84.7353333,384.221 85.3296667,386.579333 85.569,387.65 C85.8083333,388.720667 86.0683333,389.927333 86.349,391.27 C86.6303333,392.612667 86.8643333,393.683333 87.051,394.482 C87.2376667,395.280667 87.5396667,396.577667 87.957,398.373"/><path stroke="#000" stroke-width="3.912" d="M88.689,395.972 C89.241,395.970667 90.859,395.918667 93.543,395.816 C96.227,395.713333 98.9426667,395.584 101.69,395.428 C104.437333,395.272 106.612333,395.153333 108.215,395.072 C109.817667,394.99 111.676333,394.878667 113.791,394.738 L115.539,394.651"/><path stroke="#000" stroke-width="4.061" d="M118.318,394.594 C118.276,394.261333 118.048667,391.716667 117.636,386.96 C117.223333,382.204 116.966667,378.826667 116.866,376.828 C116.765333,374.829333 116.71,372.797333 116.7,370.732 C116.69,368.666667 116.781667,365.447333 116.975,361.074 C117.169,356.701333 117.498667,352.368 117.964,348.074 C118.429333,343.78 118.722,341.113 118.842,340.073"/><path stroke="#000" stroke-width="4.428" d="M80.43,68.427 C80.6913333,71.4136667 80.8506667,73.3303333 80.908,74.177 C80.966,75.0236667 81.0213333,75.9893333 81.074,77.074 C81.1273333,78.1593333 81.1886667,79.9616667 81.258,82.481 C81.328,85.0003333 81.3563333,87.9883333 81.343,91.445 C81.3296667,94.9023333 81.3176667,97.8893333 81.307,100.406 C81.2956667,102.922 81.294,104.951 81.302,106.493 C81.31,108.035 81.353,110.811667 81.431,114.823 C81.509,118.835 81.6043333,123.762333 81.717,129.605 C81.829,135.447667 81.933,140.227667 82.029,143.945 C82.125,147.663 82.2103333,151.023 82.285,154.025 C82.3596667,157.026333 82.4476667,159.812667 82.549,162.384 C82.6496667,164.955333 82.7573333,167.442333 82.872,169.845 C82.9866667,172.248333 83.0866667,174.909667 83.172,177.829 C83.2573333,180.749 83.3363333,183.680667 83.409,186.624 C83.481,189.568 83.5296667,191.919 83.555,193.677 C83.581,195.435667 83.5826667,196.948667 83.56,198.216 C83.5373333,199.483333 83.5056667,200.698333 83.465,201.861 C83.425,203.023667 83.2953333,205.332 83.076,208.786 C82.856,212.239333 82.636,215.702 82.416,219.174 C82.196,222.646 81.9676667,226.669 81.731,231.243 C81.4936667,235.817667 81.3663333,239.258 81.349,241.564 C81.3316667,243.87 81.2963333,246.475 81.243,249.379 C81.1896667,252.283 81.142,255.265667 81.1,258.327 C81.058,261.387667 81.0313333,264.643667 81.02,268.095 C81.008,271.546333 81.0303333,274.538667 81.087,277.072 C81.1443333,279.605333 81.1873333,281.336 81.216,282.264 C81.2453333,283.191333 81.339,284.589333 81.497,286.458 C81.655,288.327333 81.7936667,289.753667 81.913,290.737 C82.0323333,291.720333 82.137,292.684 82.227,293.628 C82.3176667,294.572667 82.4096667,295.617667 82.503,296.763 C82.597,297.907667 82.698,299.030667 82.806,300.132 C82.914,301.232667 83.215,303.67 83.709,307.444 C84.203,311.218 84.5286667,313.905 84.686,315.505"/><path stroke="#00944C" stroke-width="4.197" d="M74.547,73.879 L76.442,73.874 C76.8353333,73.9373333 78.2143333,74.039 80.579,74.179 C82.943,74.3183333 84.667,74.4096667 85.751,74.453 C86.8343333,74.4963333 88.1363333,74.5473333 89.657,74.606 C91.1776667,74.6653333 100.279,74.5476667 116.961,74.253"/><path stroke="#00944C" stroke-width="3.941" d="M60.43,93.436 C61.838,93.282 69.5246667,93.7546667 83.49,94.854"/><path stroke="#00944C" stroke-width="3.935" d="M59.949,112.655 C60.707,112.677667 63.5106667,112.932 68.36,113.418 C73.2093333,113.903333 79.5093333,114.359333 87.26,114.786 C95.0113333,115.212667 101.896,115.407 107.914,115.369 C113.932667,115.331 118.672,115.228667 122.132,115.062 C125.592,114.896 128.126667,114.763 129.736,114.663 C131.346,114.563 133.271333,114.416333 135.512,114.223"/><path stroke="#00944C" stroke-width="4.574" d="M37.253,142.413 C38.0416667,142.478333 45.2736667,142.534333 58.949,142.581 C72.6243333,142.627667 83.081,142.705667 90.319,142.815 C97.5576667,142.924333 102.723667,143.047667 105.817,143.185 C108.910333,143.322333 112.502667,143.531667 116.594,143.813 C120.685333,144.095 124.268667,144.375 127.344,144.653 C130.419333,144.931 133.901333,145.303667 137.79,145.771"/><path stroke="#00944C" stroke-width="4.369" d="M37.43,175.276 C37.9633333,175.214667 45.489,174.825 60.007,174.107 C74.525,173.388333 85.923,172.906667 94.201,172.662 C102.479,172.418 108.404,172.291333 111.976,172.282 C115.548,172.273333 121.266667,172.378333 129.132,172.597 C136.997333,172.815667 147.801333,173.354 161.544,174.212"/><path stroke="#00944C" stroke-width="4.225" d="M33.182,198.388 C33.4013333,198.415333 34.5566667,198.471333 36.648,198.556 C38.7386667,198.641333 44.127,198.999333 52.813,199.63 C61.499,200.260667 68.1946667,200.800333 72.9,201.249 C77.6046667,201.698333 81.3356667,202.059 84.093,202.331 C86.8503333,202.603 90.048,202.933667 93.686,203.323 C97.3246667,203.713 104.160667,204.325333 114.194,205.16 C124.226667,205.994667 132.018,206.529 137.568,206.763 C143.118,206.997667 148.758333,207.136333 154.489,207.179 C160.219,207.221667 167.238333,207.134 175.547,206.916"/><path stroke="#00944C" stroke-width="4.432" d="M4.993,231.053 C6.51433333,230.912333 10.8636667,230.817333 18.041,230.768 C25.219,230.718 31.0256667,230.734 35.461,230.816 C39.8963333,230.898667 45.4586667,231.067667 52.148,231.323 C58.8366667,231.578333 68.082,231.990333 79.884,232.559 C91.6866667,233.128333 101.477333,233.513333 109.256,233.714 C117.034667,233.914 122.730667,234.019 126.344,234.029 C129.957333,234.039 138.329,233.956333 151.459,233.781 C164.589,233.605 174.948,233.509667 182.536,233.495"/><path stroke="#00944C" stroke-width="4.266" d="M26.726,266.622 C27.324,266.572667 30.8876667,266.527 37.417,266.485 C43.947,266.443 49.5833333,266.355667 54.326,266.223 C59.0686667,266.090333 62.8516667,265.949667 65.675,265.801 C68.4983333,265.651667 70.708,265.532667 72.304,265.444 C73.9006667,265.355333 79.7153333,265.006667 89.748,264.398 C99.7806667,263.79 108.416,263.426667 115.654,263.308 C122.892,263.19 129.948333,263.390333 136.823,263.909 C143.697667,264.427667 151.631667,265.717667 160.625,267.779 C169.618333,269.840333 178.89,272.729 188.44,276.445"/><path stroke="#00944C" stroke-width="4.091" d="M35.912,226.324 C36.6753333,226.412 40.47,226.941333 47.296,227.912 C54.1226667,228.882 62.0796667,229.779667 71.167,230.605 C80.2543333,231.429667 87.203,231.944333 92.013,232.149 C96.823,232.353 100.998,232.471667 104.538,232.505 C108.078667,232.539 110.887333,232.547667 112.964,232.531 C115.040667,232.514333 118.599,232.448667 123.639,232.334 C128.679,232.22 134.506,232.025333 141.12,231.75 C147.734667,231.474667 155.385667,231.081667 164.073,230.571"/><path stroke="#00944C" stroke-width="3.957" d="M44.509,229.805 C46.2476667,229.990333 49.907,230.591 55.487,231.607 C61.0676667,232.622333 65.5716667,233.391 68.999,233.913 C72.427,234.435 75.134,234.810667 77.12,235.04 C79.106,235.27 82.3866667,235.536667 86.962,235.84 C91.5373333,236.143333 95.8516667,236.285333 99.905,236.266 C103.958333,236.246 108.128333,236.068333 112.415,235.733 C116.701,235.397667 122.043,234.804667 128.441,233.954 C134.838333,233.103333 140.056667,232.360333 144.096,231.725 C148.134667,231.089 152.126667,230.411667 156.072,229.693"/><path stroke="#00944C" stroke-width="4.968" d="M30.911,215.485 C31.1923333,215.463 31.9773333,215.29 33.266,214.966 C34.554,214.642 38.0856667,214.059 43.861,213.217 C49.637,212.375 54.9803333,211.739667 59.891,211.311 C64.8023333,210.881667 70.5376667,210.553 77.097,210.325 C83.6563333,210.097 89.707,209.901333 95.249,209.738 C100.791667,209.574667 105.392667,209.380667 109.052,209.156 C112.712,208.931333 117.753333,208.391667 124.176,207.537 C130.598,206.682333 135.810333,205.784 139.813,204.842 C143.815,203.899333 146.910667,203.09 149.1,202.414 C151.289333,201.737333 153.175333,201.105333 154.758,200.518 C156.340667,199.930667 157.351333,199.532667 157.79,199.324 C158.229333,199.116 159.950667,198.421333 162.954,197.24"/><path stroke="#00944C" stroke-width="4.882" d="M27.409,192.503 C28.8196667,192.378333 29.8953333,192.287 30.636,192.229 C31.3766667,192.171667 33.5213333,192.043333 37.07,191.844 C40.618,191.644 45.611,191.443 52.049,191.241 C58.487,191.039 64.7713333,190.924667 70.902,190.898 C77.0333333,190.871333 86.0796667,190.761333 98.041,190.568 C110.002333,190.374667 118.869,190.036667 124.641,189.554 C130.413,189.072 135.147333,188.546333 138.844,187.977 C142.540667,187.408333 145.540667,186.888667 147.844,186.418 C150.147333,185.948 152.177667,185.504333 153.935,185.087 C155.691667,184.669667 158.465,183.902 162.255,182.784"/><path stroke="#00944C" stroke-width="4.802" d="M51.423,162.408 C53.1043333,162.198 54.0456667,162.081667 54.247,162.059 C54.449,162.036333 55.7783333,161.987 58.235,161.911 C60.6923333,161.835 62.566,161.787 63.856,161.767 C65.1466667,161.746333 70.7603333,161.846 80.697,162.066 C90.6343333,162.285333 98.2886667,162.489333 103.66,162.678 C109.031333,162.866667 113.315667,162.964 116.513,162.97 C119.709667,162.976 123.220667,162.893333 127.046,162.722 C130.872,162.550667 134.234,162.289667 137.132,161.939 C140.029333,161.588333 142.916,161.119 145.792,160.531 C148.667333,159.943 151.474333,159.236 154.213,158.41 C156.951,157.584 160.09,156.450667 163.63,155.01"/><path stroke="#00944C" stroke-width="5.09" d="M46.704,132.338 C48.5306667,131.954 49.9106667,131.684333 50.844,131.529 C51.7766667,131.373667 53.8076667,131.144 56.937,130.84 C60.0663333,130.535333 63.4663333,130.311667 67.137,130.169 C70.8083333,130.025667 76.4843333,130.147 84.165,130.533 C91.8456667,130.918333 98.9176667,131.363333 105.381,131.868 C111.843667,132.373333 116.74,132.719 120.07,132.905 C123.399333,133.090333 126.166333,133.222333 128.371,133.301 C130.575667,133.379667 133.396667,133.432 136.834,133.458 C140.270667,133.483333 145.570667,133.393333 152.734,133.188"/><path stroke="#00944C" stroke-width="5.443" d="M64.576,80.392 C65.054,80.462 65.621,80.4943333 66.277,80.489 C66.9323333,80.4836667 68.1756667,80.5823333 70.007,80.785 C71.8383333,80.9876667 74.0743333,81.294 76.715,81.704 C79.3563333,82.114 81.8453333,82.547 84.182,83.003 C86.518,83.459 89.152,83.9976667 92.084,84.619 C95.016,85.2396667 97.4633333,85.76 99.426,86.18 C101.388,86.6 105.124,87.363 110.634,88.469"/><path stroke="#00944C" stroke-width="4.393" d="M58.832,77.795 C60.3566667,77.4263333 64.4953333,76.762 71.248,75.802 C78,74.842 84.7763333,73.9456667 91.577,73.113 C98.3776667,72.2796667 104.003333,71.636 108.454,71.182 C112.904667,70.728 116.653,70.372 119.699,70.114 C122.745,69.8566667 125.549,69.6346667 128.111,69.448 C130.673667,69.2606667 135.561333,68.922 142.774,68.432"/><path stroke="#00944C" stroke-width="4.579" d="M22.887,250.546 C23.8143333,250.755333 28.1476667,251.713333 35.887,253.42 C43.627,255.126 49.8833333,256.320333 54.656,257.003 C59.4293333,257.685667 63.886,258.121333 68.026,258.31 C72.166,258.498667 76.044,258.478 79.66,258.248 C83.2753333,258.018 88.3883333,257.265667 94.999,255.991 C101.609,254.716333 105.463667,253.932667 106.563,253.64 C107.662333,253.348 109.750333,252.771667 112.827,251.911"/><path stroke="#00944C" stroke-width="4.8" d="M0,282.067 C1.752,281.485 3.27233333,281.026667 4.561,280.692 C5.84966667,280.357333 7.41666667,279.968667 9.262,279.526 C11.108,279.083333 14.9653333,278.329 20.834,277.263 C26.7026667,276.197 34.5336667,275.203667 44.327,274.283 C54.1203333,273.361667 62.0093333,272.723 67.994,272.367 C73.9786667,272.011 81.5806667,271.441333 90.8,270.658 C100.02,269.874667 107.670667,269.082667 113.752,268.282 C119.833333,267.481333 126.500667,266.373 133.754,264.957 C141.006667,263.541 146.384333,262.351667 149.887,261.389 C153.390333,260.427 156.080667,259.635 157.958,259.013 C159.834667,258.390333 160.870667,258.047333 161.066,257.984 C161.260667,257.92 161.879,257.649 162.921,257.171 L166.418,255.672"/><path stroke="#00944C" stroke-width="4.747" d="M41.578,263.542 C41.902,263.528667 42.8256667,263.387 44.349,263.117 C44.9616667,262.984333 50.1006667,262.566 59.766,261.862 C69.4313333,261.158 77.421,260.75 83.735,260.638 C90.0496667,260.526 95.9043333,260.464 101.299,260.452 C106.694333,260.44 112.567333,260.447333 118.918,260.474 C125.268667,260.501333 134.379,260.537667 146.249,260.583 C158.119,260.628333 166.561333,260.547667 171.576,260.341 C176.590667,260.133667 180.369,259.892 182.911,259.616 C185.453,259.339333 187.534333,259.059333 189.155,258.776 C190.776333,258.493333 193.523333,257.814667 197.396,256.74"/><path stroke="#00944C" stroke-width="4.891" d="M44.204,237.691 C45.032,237.589667 46.578,237.214333 48.842,236.565 C49.3186667,236.451 53.5183333,236.239 61.441,235.929 C69.3636667,235.619667 76.9573333,235.637 84.222,235.981 C91.486,236.324333 96.974,236.585 100.686,236.763 C104.398,236.941 108.836333,237.113 114.001,237.279 C119.165,237.445 126.252,237.392667 135.262,237.122 C144.272,236.851333 150.888667,236.522333 155.112,236.135 C159.335333,235.747667 162.518333,235.416667 164.661,235.142 C166.803667,234.866667 170.126,234.378333 174.628,233.677"/><path stroke="#00944C" stroke-width="5.236" d="M15.926,249.575 C16.9206667,249.241 18.5636667,248.655 20.855,247.817 C23.1463333,246.979 26.5613333,245.88 31.1,244.52 C35.6386667,243.160667 48.3486667,240.758667 69.23,237.314 C90.1113333,233.869333 102.605333,231.851 106.712,231.259 C110.818,230.667 113.757,230.229667 115.529,229.947 C117.301,229.664333 121.102667,228.879 126.934,227.591 C132.765333,226.303 137.169,225.179667 140.145,224.221 C143.121,223.263 145.575667,222.379333 147.509,221.57 C149.442333,220.761333 150.918333,220.114 151.937,219.628 C152.955667,219.142667 153.907667,218.644667 154.793,218.134 C155.678333,217.623333 157.966667,216.193333 161.658,213.844"/><path stroke="#00944C" stroke-width="7.251" d="M47.527,196.089 C48.2436667,195.969667 49.6623333,195.656667 51.783,195.15 C53.903,194.643333 59.259,193.796667 67.851,192.61 C76.443,191.424 84.659,190.417667 92.499,189.591 C100.339,188.765 106.797,188.049 111.873,187.443 C116.949,186.837 121.513333,186.258 125.566,185.706 C129.619333,185.154 132.885333,184.687333 135.364,184.306 C137.842667,183.925333 140.999667,183.401 144.835,182.733"/><path stroke="#00944C" stroke-width="5.419" d="M60.064,171.93 C62.4706667,171.474 66.7976667,170.986667 73.045,170.468 C79.2923333,169.948667 84.9706667,169.491667 90.08,169.097 C95.1893333,168.702333 100.19,168.247667 105.082,167.733 C109.974,167.219 114.108667,166.695333 117.486,166.162 C120.863333,165.629333 123.581,165.164 125.639,164.766 C127.697,164.368 132.468667,163.286333 139.954,161.521"/><path stroke="#00944C" stroke-width="5.549" d="M60.44,111.399 C60.9513333,111.237667 61.8746667,110.947667 63.21,110.529 C64.5453333,110.109667 65.743,109.743667 66.803,109.431 C67.8623333,109.118333 71.4463333,108.58 77.555,107.816 C83.6636667,107.052667 89.584,106.647667 95.316,106.601 C101.048,106.555 106.16,106.637667 110.652,106.849 C115.144,107.061 119.185,107.239333 122.775,107.384 C126.365,107.528667 129.296667,107.631 131.57,107.691 C133.842667,107.750333 135.892667,107.793333 137.72,107.82 C139.547333,107.846667 142.487,107.81 146.539,107.71"/><path stroke="#00944C" stroke-width="4.438" d="M59.546,65.515 C60.012,65.4796667 60.837,65.368 62.021,65.18 C63.2056667,64.9913333 67.5623333,64.8983333 75.091,64.901 C82.6203333,64.9036667 88.9246667,65.058 94.004,65.364 C99.0833333,65.67 104.889333,66.0846667 111.422,66.608"/><line x1="86.925" x2="94.39" y1="64.938" y2="69.714" stroke="#00944C" stroke-width="3.941"/><path stroke="#00944C" stroke-width="6.328" d="M16.044,278.17 C17.1566667,278.368 19.9673333,278.974333 24.476,279.989 C28.9846667,281.003667 37.3816667,282.741 49.667,285.201"/><path stroke="#00944C" stroke-width="4.17" d="M96.536,282.364 C97.8746667,282.291333 101.222333,281.983667 106.579,281.441 C111.935667,280.897667 121.267333,280.062667 134.574,278.936"/><path stroke="#00944C" stroke-width="4.518" d="M17.024,276.453 C17.63,276.437667 18.912,276.384667 20.87,276.294 C22.828,276.202667 28.0403333,276.102 36.507,275.992 C44.973,275.882667 52.279,275.775 58.425,275.669 C64.5703333,275.563667 72.1376667,275.306333 81.127,274.897 C90.1156667,274.487667 100.676,273.669 112.808,272.441 C124.940667,271.213 133.932,270.265667 139.782,269.599 C145.632,268.931667 150.722333,268.38 155.053,267.944 C159.383667,267.507333 168.561667,266.818333 182.587,265.877"/><path stroke="#00944C" stroke-width="4.933" d="M25.781,275.679 C26.713,275.753667 28.1216667,275.782333 30.007,275.765 C31.8916667,275.747 35.889,275.718667 41.999,275.68 C48.109,275.641333 52.9646667,275.62 56.566,275.616 C60.1666667,275.612 65.055,275.621667 71.231,275.645 C77.4063333,275.668333 84.6046667,275.702333 92.826,275.747 C101.046667,275.791 109.020333,275.728 116.747,275.558 C124.474333,275.388667 132.946667,274.845333 142.164,273.928 C151.382,273.010667 160.001,271.694667 168.021,269.98 C176.041,268.265333 181.674,266.923333 184.92,265.954 C188.166,264.984667 190.691,264.157333 192.495,263.472"/><path stroke="#00944C" stroke-width="5.406" d="M36.929,265.932 C38.267,265.925333 40.807,265.761 44.549,265.439 C48.2903333,265.117 53.845,264.754 61.213,264.35 C68.5803333,263.946 74.617,263.654 79.323,263.474 C84.029,263.294 89.5523333,263.081667 95.893,262.837 C102.234333,262.592333 109.712667,262.081333 118.328,261.304 C126.944,260.527333 133.561333,259.706667 138.18,258.842 C142.798667,257.977333 147.086,256.959 151.042,255.787 C154.997333,254.614333 158.102667,253.575333 160.358,252.67 C162.613333,251.765333 164.383,251.000667 165.667,250.376 C166.951667,249.751333 168.169667,249.117333 169.321,248.474 C170.473,247.830667 172.626667,246.493 175.782,244.461"/><path stroke="#00944C" stroke-width="6.103" d="M47.819,232.658 C48.4276667,232.536 49.715,232.231 51.681,231.743 C53.647,231.255 58.318,230.487 65.694,229.439 C73.0693333,228.391 79.6006667,227.632 85.288,227.162 C90.9746667,226.691333 97.817,226.198 105.815,225.682 C113.813667,225.165333 121.209333,224.571667 128.002,223.901 C134.795333,223.230333 140.609,222.492333 145.443,221.687 C150.277,220.881 154.584333,220.061 158.365,219.227 C162.145667,218.392333 167.165333,217.121667 173.424,215.415"/><path stroke="#00944C" stroke-width="4.788" d="M61.764,227.033 C62.458,226.908333 64.035,226.52 66.495,225.868 C68.9556667,225.216667 72.7696667,224.278333 77.937,223.053 C83.1043333,221.827 87.4076667,220.782333 90.847,219.919 C94.287,219.055667 98.4246667,217.904333 103.26,216.465 C108.095333,215.025 112.200667,213.687333 115.576,212.452 C118.950667,211.216667 122.121667,209.969333 125.089,208.71 C128.056333,207.450667 130.455,206.392667 132.285,205.536 C134.115667,204.68 136.009667,203.751333 137.967,202.75 C139.924333,201.748667 142.802333,200.211667 146.601,198.139"/><path stroke="#00944C" stroke-width="4.535" d="M56.51,177.441 C57.406,177.413667 59.4056667,177.211 62.509,176.833 C65.613,176.455667 69.7436667,176.019333 74.901,175.524 C80.0576667,175.028 84.579,174.624333 88.465,174.313 C92.351,174.001667 99.6466667,173.457333 110.352,172.68 C121.058,171.902667 129.252667,171.253 134.936,170.731 C140.619333,170.209 145.180667,169.748 148.62,169.348 C152.06,168.947333 156.070333,168.375333 160.651,167.632"/><path stroke="#00944C" stroke-width="3.943" d="M61.261,159.678 C63.1263333,158.915333 64.422,158.392 65.148,158.108 C65.8733333,157.824 69.0766667,156.898333 74.758,155.331 C80.4386667,153.763 86.753,152.091333 93.701,150.316 C100.648333,148.540667 107.396333,146.743333 113.945,144.924 C120.493667,143.104 126.194,141.331333 131.046,139.606 C135.898,137.881333 139.398,136.572 141.546,135.678 C143.694,134.784 146.084333,133.733667 148.717,132.527 C151.349667,131.319667 155.284,129.408 160.52,126.792"/><path stroke="#00944C" stroke-width="3.947" d="M81.313,98.992 C81.8176667,98.9593333 83.2013333,98.724 85.464,98.286 C87.7273333,97.8486667 91.444,97.3176667 96.614,96.693 C101.784667,96.0683333 106.497667,95.5556667 110.753,95.155 C115.008333,94.7536667 118.264,94.4596667 120.52,94.273 C122.776,94.0863333 127.914333,93.6486667 135.935,92.96 C143.955667,92.2713333 153.639333,91.3186667 164.986,90.102"/><path stroke="#4245A3" stroke-width="4.632" d="M108.921,115.259 L108.081,115.564 C106.039667,116.028667 104.736333,116.333333 104.171,116.478 C103.605667,116.622667 103.053,116.772 102.513,116.926 C101.972333,117.08 101.292667,117.315333 100.474,117.632 C99.6553333,117.948667 98.4903333,118.501667 96.979,119.291 C95.4683333,120.080333 94.0836667,121.027667 92.825,122.133 C91.5663333,123.238333 90.5663333,124.373 89.825,125.537 C89.0836667,126.700333 88.572,128.069667 88.29,129.645 C88.008,131.220333 87.91,132.344 87.996,133.016 C88.082,133.687333 88.1773333,134.180333 88.282,134.495 C88.3866667,134.809667 89.0053333,135.662667 90.138,137.054 C91.2713333,138.445333 92.0616667,139.288333 92.509,139.583 C92.9563333,139.877667 93.5516667,140.184333 94.295,140.503 C95.0383333,140.821667 96.0756667,141.110667 97.407,141.37 C98.7376667,141.63 100.018,141.726333 101.248,141.659 C102.477333,141.592333 103.564667,141.438333 104.51,141.197 C105.454667,140.955667 106.715,140.377667 108.291,139.463 C109.866333,138.548333 110.918667,137.815333 111.448,137.264 C111.977333,136.712667 112.407,136.183 112.737,135.675 C113.067667,135.167 113.303667,134.673667 113.445,134.195 C113.587,133.716333 113.551333,133.041 113.338,132.169 C113.124667,131.297 112.765667,130.557667 112.261,129.951 C111.755667,129.343667 111.260667,128.876667 110.776,128.55 C110.291333,128.224 110.023667,128.043667 109.973,128.009 C109.923,127.975 109.487333,127.806333 108.666,127.503 C107.844667,127.200333 106.429333,126.958 104.42,126.776 C102.410667,126.594 100.354,126.547333 98.25,126.636 C96.146,126.724 92.6856667,127.089333 87.869,127.732"/><path stroke="#4378C3" stroke-width="4.35" d="M104.599,218.656 C104.317667,218.823333 103.534,219.088667 102.248,219.452 C100.962,219.815333 99.884,220.141 99.014,220.429 C98.1446667,220.717 97.3266667,221.041 96.56,221.401 C95.7926667,221.761 95.1116667,222.117333 94.517,222.47 C93.9216667,222.822667 93.4496667,223.145 93.101,223.437 C92.7516667,223.729667 92.3773333,224.133667 91.978,224.649 C91.5786667,225.165 91.2526667,225.716667 91,226.304 C90.7473333,226.890667 90.5483333,227.547667 90.403,228.275 C90.2576667,229.001667 90.2373333,229.889333 90.342,230.938 C90.4466667,231.986 90.9863333,233.338333 91.961,234.995 C92.9363333,236.651 93.9383333,237.886 94.967,238.7 C95.995,239.514 96.862,240.076333 97.568,240.387 C98.274,240.698333 99.1576667,240.934333 100.219,241.095 C101.280333,241.255667 102.596667,241.158667 104.168,240.804 C105.738667,240.449333 106.897667,240.068 107.645,239.66 C108.392333,239.251333 109.225,238.576333 110.143,237.635 C111.061,236.693667 111.808667,235.461667 112.386,233.939 C112.963333,232.415667 113.097,230.584667 112.787,228.446 C112.476333,226.308 112.089667,224.908667 111.627,224.248 C111.165,223.586667 110.002,222.625 108.138,221.363 C106.274,220.100333 104.302667,219.104667 102.224,218.376 C100.144667,217.647333 95.9106667,216.775667 89.522,215.761"/><path stroke="#92A26B" stroke-width="4.026" d="M68.664,173.47 C68.3753333,173.696667 67.6273333,174.260333 66.42,175.161 C65.2126667,176.061 64.077,176.956667 63.013,177.848 C61.9496667,178.739333 60.837,179.767333 59.675,180.932 C58.513,182.097333 57.6263333,183.064333 57.015,183.833 C56.403,184.602333 55.804,185.559667 55.218,186.705 C54.6313333,187.850333 54.235,188.873667 54.029,189.775 C53.823,190.677 53.7226667,191.427667 53.728,192.027 C53.7333333,192.625667 53.8876667,193.310667 54.191,194.082 C54.4936667,194.853333 54.889,195.466667 55.377,195.922 C55.865,196.378 56.4363333,196.705667 57.091,196.905 C57.7456667,197.104333 58.476,197.161 59.282,197.075 C60.088,196.988333 60.853,196.759667 61.577,196.389 C62.301,196.018333 62.87,195.673 63.284,195.353 C63.698,195.033 64.1483333,194.623333 64.635,194.124 C65.1216667,193.625333 65.6393333,193.003333 66.188,192.258 C66.736,191.513333 67.3943333,190.357333 68.163,188.79 C68.9316667,187.222667 69.5713333,185.619667 70.082,183.981 C70.5933333,182.343 70.9513333,181.059 71.156,180.129 C71.3606667,179.199 71.5743333,178.301333 71.797,177.436 C72.0196667,176.571333 72.2846667,175.432667 72.592,174.02"/><path stroke="#FFF13A" stroke-width="3.988" d="M68.887,52.056 C69.3083333,50.8913333 69.8566667,49.4813333 70.532,47.826 C71.2073333,46.1706667 72.1166667,43.9936667 73.26,41.295 C74.4026667,38.597 75.7426667,35.6546667 77.28,32.468 C78.8166667,29.282 80.0066667,26.9153333 80.85,25.368 C81.6926667,23.8213333 82.5943333,22.179 83.555,20.441 C84.5163333,18.703 85.394,17.1216667 86.188,15.697 C86.9826667,14.2716667 87.6013333,13.2103333 88.044,12.513 C88.4873333,11.815 89.7653333,9.73666667 91.878,6.278"/><path stroke="#FFF13A" stroke-width="4.017" d="M96.181,0 C96.1103333,0.312 95.8646667,1.13233333 95.444,2.461 C95.0233333,3.78966667 94.7383333,4.715 94.589,5.237 C94.4396667,5.75966667 94.311,6.38666667 94.203,7.118 C94.0943333,7.85 94.0243333,8.592 93.993,9.344 C93.961,10.0966667 93.9546667,10.7776667 93.974,11.387 C93.9933333,11.9956667 94.1646667,13.7066667 94.488,16.52 C94.812,19.3326667 95.043,21.2233333 95.181,22.192 C95.319,23.16 95.4476667,24.048 95.567,24.856 C95.6863333,25.664 95.876,26.7466667 96.136,28.104 C96.396,29.4613333 96.6696667,30.757 96.957,31.991 C97.2443333,33.225 97.6113333,34.602 98.058,36.122 C98.5053333,37.6426667 98.9283333,39.011 99.327,40.227 C99.7263333,41.4423333 99.954,42.1536667 100.01,42.361 C100.066667,42.5683333 100.258,43.1983333 100.584,44.251 C100.909333,45.303 101.352,46.6426667 101.912,48.27 C102.471333,49.8966667 103.302,52.357 104.404,55.651"/><path stroke="#FFF13A" stroke-width="4.138" d="M98.904,54.521 L96.957,52.898 C96.7283333,52.6673333 95.1116667,51.325 92.107,48.871 C89.103,46.4163333 86.8206667,44.5893333 85.26,43.39 C83.6993333,42.1913333 82.547,41.3006667 81.803,40.718 C81.0596667,40.136 79.6513333,39.035 77.578,37.415 C75.5046667,35.7956667 74.303,34.8586667 73.973,34.604 C73.643,34.3493333 72.8533333,33.769 71.604,32.863 C70.3553333,31.9563333 69.2456667,31.1736667 68.275,30.515 C67.3043333,29.8563333 66.136,29.118 64.77,28.3 C63.404,27.482 60.493,25.8363333 56.037,23.363"/><path stroke="#FFF13A" stroke-width="3.979" d="M60.034,25.368 C60.18,25.352 61.339,25.4033333 63.511,25.522 C63.7043333,25.544 66.186,25.482 70.956,25.336 C75.726,25.19 79.91,25.0596667 83.508,24.945 C87.106,24.8303333 90.1293333,24.73 92.578,24.644 C95.0266667,24.558 97.7096667,24.485 100.627,24.425 C103.543667,24.3643333 105.780667,24.2916667 107.338,24.207 C108.895333,24.1223333 109.921333,24.0573333 110.416,24.012 C110.910667,23.966 115.872667,23.4266667 125.302,22.394"/><path stroke="#FFF13A" stroke-width="3.975" d="M120.075,26.034 L117.76,27.184 C117.064,27.4793333 114.409667,28.9003333 109.797,31.447 C105.183667,33.993 101.294,36.2566667 98.128,38.238 C94.9613333,40.2193333 91.939,42.2253333 89.061,44.256 C86.183,46.286 84.0063333,47.875 82.531,49.023 C81.0563333,50.1703333 79.8466667,51.136 78.902,51.92 C77.958,52.704 75.511,54.9463333 71.561,58.647"/><path stroke="#D75341" stroke-width="3.964" d="M48.583,237.304 C48.559,237.417333 48.2393333,238.258 47.624,239.826 C47.0086667,241.394667 46.5386667,242.653667 46.214,243.603 C45.8893333,244.553 45.6186667,245.555333 45.402,246.61 C45.186,247.665333 45.107,249.271 45.165,251.427 C45.223,253.582333 45.591,255.372667 46.269,256.798 C46.947,258.224 47.7373333,259.379 48.64,260.263 C49.5426667,261.147667 50.4006667,261.772333 51.214,262.137 C52.0273333,262.502333 52.8193333,262.742333 53.59,262.857 C54.3613333,262.971667 55.222,262.912333 56.172,262.679 C57.1226667,262.445 58.1423333,261.903 59.231,261.053 C60.3196667,260.203 61.1213333,259.347333 61.636,258.486 C62.1506667,257.624667 62.534,256.482333 62.786,255.059 C63.038,253.635667 63.1093333,252.532333 63,251.749 C62.8913333,250.965 62.4626667,249.746 61.714,248.092 C60.9646667,246.437333 60.3113333,245.189 59.754,244.347 C59.1966667,243.504333 58.712,242.784667 58.3,242.188 C57.8886667,241.592 57.2643333,240.653333 56.427,239.372 C56.117,238.686667 55.245,237.156 53.811,234.78"/><path stroke="#0097C9" stroke-width="4.007" d="M135.585,175.362 C135.453667,175.459333 134.736,175.839667 133.432,176.503 C132.128,177.166333 130.751667,177.966333 129.303,178.903 C127.854333,179.839667 127.005,180.424 126.755,180.656 C126.505,180.888 126.256,181.138 126.008,181.406 C125.760667,181.673333 125.289667,182.423333 124.595,183.656 C123.899667,184.889333 123.416,186.210667 123.144,187.62 C122.871333,189.029333 122.810333,190.206667 122.961,191.152 C123.111667,192.098 123.342333,192.900667 123.653,193.56 C123.963,194.22 124.316333,194.772 124.713,195.216 C125.109667,195.660667 125.463667,195.977667 125.775,196.167 C126.086333,196.356333 126.524667,196.505667 127.09,196.615 C127.655333,196.724333 128.321,196.659667 129.087,196.421 C129.853667,196.181667 130.659333,195.654333 131.504,194.839 C132.348,194.023667 132.989,193.183667 133.427,192.319 C133.864333,191.454333 134.175,190.655667 134.359,189.923 C134.543,189.190333 134.678667,188.307667 134.766,187.275 C134.853333,186.243 134.782667,184.924333 134.554,183.319 C134.326,181.713667 134.090333,180.417333 133.847,179.43 C133.603667,178.443333 133.005,176.157333 132.051,172.572"/><path stroke="#E55951" stroke-width="4.028" d="M88.402,81.136 C88.204,81.2973333 87.8123333,81.572 87.227,81.96 C86.6423333,82.3486667 86.1873333,82.6633333 85.862,82.904 C85.5373333,83.1453333 85.169,83.4286667 84.757,83.754 C84.3456667,84.08 83.9436667,84.4236667 83.551,84.785 C83.1576667,85.1463333 82.7656667,85.5456667 82.375,85.983 C81.9843333,86.4203333 81.6123333,86.8913333 81.259,87.396 C80.9056667,87.9 80.6226667,88.4506667 80.41,89.048 C80.1973333,89.6446667 80.068,90.0946667 80.022,90.398 C79.976,90.7013333 79.9556667,90.9436667 79.961,91.125 C79.967,91.3063333 80.0326667,91.641 80.158,92.129 C80.2826667,92.6163333 80.5083333,93.0466667 80.835,93.42 C81.1616667,93.794 81.4376667,94.0463333 81.663,94.177 C81.8883333,94.3083333 82.2783333,94.4216667 82.833,94.517 C83.3876667,94.6116667 84.012,94.534 84.706,94.284 C85.4006667,94.0333333 86.0446667,93.63 86.638,93.074 C87.2306667,92.518 87.6223333,92.0826667 87.813,91.768 C88.003,91.454 88.119,91.2546667 88.161,91.17 C88.203,91.0853333 88.2886667,90.8153333 88.418,90.36 C88.5473333,89.9053333 88.6253333,89.4513333 88.652,88.998 C88.6786667,88.5453333 88.6796667,87.948 88.655,87.206 C88.631,86.464 88.5866667,85.88 88.522,85.454 C88.458,85.0286667 88.3606667,84.629 88.23,84.255 C88.0986667,83.8816667 87.9673333,83.5516667 87.836,83.265 C87.704,82.9783333 87.62,82.772 87.584,82.646 C87.5473333,82.52 87.0133333,81.5113333 85.982,79.62"/><path stroke="#E55951" stroke-width="4.066" d="M138.547,238.258 C138.541667,238.391333 138.480667,238.703 138.364,239.193 C138.246667,239.683 138.1,240.428 137.924,241.428 C137.747333,242.428 137.635,243.744 137.587,245.376 C137.539,247.007333 137.566667,248.243 137.67,249.083 C137.772667,249.923 137.859667,250.490667 137.931,250.786 C138.002333,251.082 138.1,251.360667 138.224,251.622 C138.347333,251.883333 138.468,252.100667 138.586,252.274 C138.703333,252.447333 139.193,252.9 140.055,253.632 C140.917,254.363333 141.743,254.855333 142.533,255.108 C143.323,255.36 144.085667,255.473 144.821,255.447 C145.556333,255.421 146.482667,255.108667 147.6,254.51 C148.718,253.910667 149.684333,253.075667 150.499,252.005 C151.313,250.934333 151.815333,250.092667 152.006,249.48 C152.196,248.866667 152.329667,248.188333 152.407,247.445 C152.483667,246.701 152.388333,245.662 152.121,244.328 C151.854333,242.994 151.402333,241.555 150.765,240.011 C150.127667,238.466333 149.107333,236.21 147.704,233.242"/></g></svg>